<?xml version="1.0" standalone="no"?>
<!DOCTYPE svg PUBLIC "-//W3C//DTD SVG 20010904//EN"
 "http://www.w3.org/TR/2001/REC-SVG-20010904/DTD/svg10.dtd">
<svg version="1.0" xmlns="http://www.w3.org/2000/svg"
 width="600.000000pt" height="800.000000pt" viewBox="0 0 600.000000 800.000000"
 preserveAspectRatio="xMidYMid meet">
<g transform="translate(0.000000,800.000000) scale(0.100000,-0.100000)"
fill="#000000" stroke="none">
<path d="M2723 6305 c0 -8 4 -12 9 -9 5 3 6 10 3 15 -9 13 -12 11 -12 -6z"/>
<path d="M2783 6303 c-18 -9 -33 -21 -33 -26 0 -26 -59 -59 -83 -46 -44 25
-147 -41 -163 -105 -3 -14 -12 -27 -19 -29 -7 -3 -22 -26 -35 -51 -12 -26 -34
-53 -48 -61 -15 -8 -21 -14 -14 -15 7 0 -13 -21 -45 -47 -72 -58 -92 -82 -93
-108 0 -16 2 -17 10 -5 5 8 12 11 16 7 4 -3 2 -13 -5 -21 -25 -30 -36 -216
-11 -201 10 6 26 -14 35 -43 5 -16 1 -30 -12 -44 -16 -19 -16 -21 -1 -15 15 5
16 1 11 -23 -3 -20 -1 -30 6 -30 8 0 10 -8 6 -20 -4 -12 0 -31 9 -45 9 -13 16
-36 16 -50 0 -14 4 -25 9 -25 4 0 6 11 3 25 -4 25 4 30 37 25 11 -1 10 2 -3
15 -9 9 -16 28 -16 43 0 19 -3 23 -11 15 -8 -8 -8 -17 0 -31 7 -12 7 -23 2
-26 -5 -4 -12 6 -15 21 -15 68 -17 79 -20 101 -2 12 0 25 5 28 5 2 4 16 -1 29
-5 14 -7 25 -4 25 4 0 2 6 -4 13 -30 36 -3 203 38 234 8 6 12 14 9 18 -4 3
-15 -2 -25 -12 -16 -16 -17 -16 -11 -1 3 10 1 20 -5 24 -7 5 -9 -2 -5 -22 3
-18 -2 -44 -15 -71 -13 -27 -18 -52 -14 -68 4 -14 2 -25 -3 -25 -13 0 -7 120
5 128 16 11 11 63 -5 57 -7 -3 -3 6 10 19 16 16 26 21 31 13 4 -6 5 -14 2 -18
-2 -4 0 -10 6 -14 5 -3 10 1 10 9 0 9 4 16 9 16 5 0 21 16 36 36 l28 36 -29
-17 -29 -17 25 21 c14 11 31 21 38 21 7 0 18 12 25 28 6 15 14 29 18 32 10 8
33 55 31 62 -1 5 4 7 11 5 7 -1 11 6 9 16 -2 9 1 25 7 34 7 13 8 8 6 -18 -2
-18 -4 -42 -4 -52 -1 -10 -5 -15 -11 -12 -15 9 -12 -11 4 -24 10 -9 16 -8 26
4 7 8 18 15 25 15 7 0 23 10 37 23 14 13 33 22 42 21 9 -1 14 2 10 7 -3 5 -10
7 -15 4 -5 -4 -9 -1 -9 4 0 6 11 10 24 9 13 -1 22 -7 20 -13 -6 -14 34 -17 42
-3 4 7 2 8 -4 4 -6 -3 -16 2 -22 13 -7 13 -7 22 0 26 5 3 10 3 10 -2 0 -4 4
-3 8 4 6 10 18 9 55 -2 35 -10 46 -11 44 -2 -1 7 8 11 23 9 24 -3 24 -2 7 15
-17 17 -19 17 -33 -2 -13 -18 -17 -18 -56 -4 -23 9 -44 21 -46 27 -6 18 17 14
45 -8 31 -24 51 -16 27 11 -9 10 -12 19 -7 19 6 0 16 -7 23 -15 7 -8 17 -12
22 -9 7 4 6 9 -1 14 -7 4 11 18 43 33 60 30 66 31 66 18 0 -9 -39 -24 -55 -21
-5 1 -7 -2 -3 -6 4 -4 -2 -15 -14 -25 -11 -11 -17 -20 -12 -20 5 -1 16 -2 24
-3 8 0 15 -8 15 -16 0 -10 11 -16 35 -17 l35 -1 -33 6 -34 7 21 24 c12 13 21
20 21 15 0 -5 5 -2 10 6 6 9 13 11 18 5 9 -13 42 -16 42 -4 0 5 -9 9 -20 9
-18 0 -25 10 -21 33 0 4 -4 7 -10 7 -6 0 -9 7 -5 15 3 8 0 15 -7 15 -7 0 -3 8
8 16 12 10 14 14 5 12 -8 -3 -21 1 -28 9 -18 18 -90 15 -129 -4z m119 -17 c20
-18 20 -18 -36 -41 -31 -13 -63 -28 -70 -34 -10 -8 -16 -9 -21 -1 -3 5 -11 10
-16 10 -6 0 -7 -4 -4 -10 3 -5 1 -10 -6 -10 -6 0 -1 -9 12 -21 20 -17 18 -17
-14 3 -36 22 -37 23 -17 39 10 9 16 20 12 24 -4 5 2 5 13 1 11 -4 16 -4 12 0
-9 9 22 44 40 44 7 0 13 3 13 8 0 14 62 5 82 -12z m-228 -72 c9 -3 16 -12 16
-19 0 -9 -8 -10 -35 -1 -19 6 -35 14 -35 18 0 10 32 10 54 2z m246 0 c0 -12
-30 -34 -47 -34 -15 0 -14 3 7 20 25 20 40 25 40 14z m-242 -41 c31 -15 46
-30 18 -20 -9 4 -17 -1 -21 -12 -3 -11 -19 -21 -36 -25 -17 -3 -28 -10 -25
-15 4 -5 -2 -12 -12 -15 -10 -4 -29 -16 -41 -27 -12 -12 -24 -19 -26 -17 -10
10 34 102 49 104 9 1 16 -2 16 -7 0 -5 8 -9 17 -9 13 0 14 3 5 12 -9 9 -7 15
6 25 9 8 11 12 5 8 -21 -10 -53 -14 -53 -6 0 4 5 12 12 19 13 13 33 9 86 -15z
m-328 -283 c0 -5 -7 -7 -15 -4 -8 4 -15 8 -15 10 0 2 7 4 15 4 8 0 15 -4 15
-10z m-60 -266 c0 -8 -4 -12 -10 -9 -5 3 -10 13 -10 21 0 8 5 12 10 9 6 -3 10
-13 10 -21z"/>
<path d="M2810 6270 c-13 -8 -13 -10 2 -10 9 0 20 5 23 10 8 13 -5 13 -25 0z"/>
<path d="M2580 6123 c0 -4 5 -15 10 -23 8 -13 10 -13 10 2 0 9 -4 20 -10 23
-5 3 -10 3 -10 -2z"/>
<path d="M3007 6283 c45 -9 55 -60 19 -96 -8 -8 -11 -19 -6 -27 6 -9 13 -7 30
10 25 25 80 50 109 50 11 0 22 4 25 9 3 4 -7 7 -22 5 -24 -3 -24 -3 5 7 17 7
34 18 37 25 6 15 -43 -5 -106 -43 l-37 -23 5 28 c7 36 -17 63 -54 61 -23 -2
-23 -2 -5 -6z"/>
<path d="M3097 6276 c-4 -10 -1 -13 9 -9 7 3 14 9 14 14 0 14 -17 10 -23 -5z"/>
<path d="M2958 6251 c3 -20 9 -28 18 -24 8 3 12 8 9 12 -2 4 10 6 28 4 18 -2
26 0 19 3 -6 3 -10 10 -6 15 3 6 -7 7 -26 4 -20 -4 -29 -2 -25 5 3 5 0 10 -8
10 -9 0 -12 -9 -9 -29z"/>
<path d="M3220 6237 c0 -8 -17 -19 -39 -25 -21 -7 -44 -19 -51 -27 -7 -8 -19
-15 -26 -15 -8 0 -14 -4 -14 -10 0 -11 98 -2 120 12 10 6 3 8 -22 4 -45 -6
-47 -2 -10 16 38 19 106 23 96 6 -5 -10 -4 -10 6 -1 18 17 127 -18 115 -37 -4
-7 -11 -7 -18 -2 -16 12 -98 22 -125 15 -36 -9 -25 -20 26 -26 26 -4 58 -9 72
-12 22 -5 21 -4 -5 9 -26 14 -27 15 -5 10 14 -4 40 -13 59 -20 45 -19 51 -17
21 6 -14 11 -20 20 -14 20 15 0 56 -45 47 -53 -3 -4 -2 -7 4 -7 17 0 83 -73
89 -97 4 -13 11 -20 17 -16 6 4 7 1 2 -7 -4 -7 -2 -16 6 -21 7 -4 11 -11 7
-14 -3 -3 -30 22 -59 56 -30 34 -52 63 -49 65 5 3 -60 54 -69 54 -3 0 7 -12
23 -26 16 -14 29 -35 30 -46 1 -12 7 -23 15 -26 9 -3 11 0 6 8 -5 8 -4 11 3 6
6 -4 9 -13 6 -20 -3 -7 14 -29 37 -49 23 -21 37 -37 32 -37 -5 0 -14 5 -19 10
-7 7 -11 6 -11 -4 0 -10 9 -13 29 -10 25 3 31 -2 43 -29 7 -18 17 -32 22 -32
4 0 7 -4 5 -8 -1 -5 3 -5 9 -1 8 5 10 2 6 -9 -3 -9 4 -25 17 -40 12 -13 20
-29 18 -35 -2 -7 4 -15 12 -18 11 -4 15 -13 11 -28 -4 -14 -3 -17 3 -8 12 17
23 2 44 -58 18 -52 20 -69 16 -145 -3 -43 2 -85 11 -85 13 0 21 177 9 213 -6
18 -27 57 -46 87 -20 30 -35 62 -34 71 0 10 -11 31 -26 47 -15 17 -36 41 -48
54 -11 13 -29 46 -40 73 -10 27 -42 73 -71 104 -37 39 -49 58 -40 64 9 6 8 7
-3 5 -8 -1 -33 9 -55 24 -22 14 -58 32 -80 38 -22 7 -57 19 -77 26 -32 12 -38
12 -38 1z m470 -427 c0 -15 -5 -12 -26 11 -19 22 -19 22 4 10 12 -6 22 -16 22
-21z"/>
<path d="M3001 6214 c0 -11 3 -14 6 -6 3 7 2 16 -1 19 -3 4 -6 -2 -5 -13z"/>
<path d="M2925 6160 c-3 -6 1 -7 9 -4 18 7 21 14 7 14 -6 0 -13 -4 -16 -10z"/>
<path d="M3163 6133 c-3 -10 -11 -22 -17 -26 -7 -6 -4 -7 7 -3 9 3 17 1 17 -3
0 -5 7 -12 16 -15 10 -4 13 -2 8 7 -4 6 2 4 14 -6 20 -18 20 -18 15 2 -3 11
-14 21 -26 23 -11 2 -22 9 -25 16 -3 9 3 11 20 8 12 -3 43 -7 68 -10 59 -6
108 -24 146 -53 17 -12 35 -23 39 -23 14 0 -37 49 -58 56 -16 5 -17 8 -6 16
10 7 8 8 -8 3 -12 -3 -39 -2 -60 4 -21 5 -62 12 -90 16 -46 6 -54 4 -60 -12z"/>
<path d="M3495 6131 c-3 -5 -2 -12 3 -15 5 -3 9 1 9 9 0 17 -3 19 -12 6z"/>
<path d="M2720 6126 c0 -2 7 -7 16 -10 8 -3 12 -2 9 4 -6 10 -25 14 -25 6z"/>
<path d="M2833 6123 c9 -2 23 -2 30 0 6 3 -1 5 -18 5 -16 0 -22 -2 -12 -5z"/>
<path d="M3116 6118 c3 -5 10 -6 15 -3 13 9 11 12 -6 12 -8 0 -12 -4 -9 -9z"/>
<path d="M2980 6094 c0 -9 -5 -12 -12 -8 -10 5 -10 3 0 -7 11 -12 14 -12 22 1
13 19 12 30 0 30 -5 0 -10 -7 -10 -16z"/>
<path d="M3242 6101 c-11 -7 -10 -10 3 -15 23 -8 27 -8 20 3 -3 5 5 12 17 14
22 4 22 4 -2 5 -14 1 -31 -2 -38 -7z"/>
<path d="M3326 6092 c-4 -6 -14 -9 -24 -6 -14 5 -14 4 -2 -4 8 -6 17 -9 21 -6
15 9 60 -19 54 -34 -4 -12 -3 -12 9 -3 11 9 15 8 20 -4 3 -9 10 -14 14 -11 12
7 34 -43 26 -56 -4 -7 -2 -8 5 -4 6 4 18 2 26 -4 28 -24 14 5 -23 46 -40 44
-102 91 -102 77 0 -4 -4 -2 -9 6 -6 9 -11 10 -15 3z"/>
<path d="M3137 6079 c7 -7 15 -10 18 -7 3 3 -2 9 -12 12 -14 6 -15 5 -6 -5z"/>
<path d="M2634 6042 c5 -8 -3 -12 -23 -12 -17 0 -31 -5 -31 -10 0 -6 11 -8 28
-4 35 8 47 20 31 29 -8 5 -10 4 -5 -3z"/>
<path d="M3055 6040 c3 -5 12 -10 20 -10 8 0 18 -8 24 -17 5 -10 13 -14 18
-10 4 5 -3 17 -17 27 -26 21 -55 27 -45 10z"/>
<path d="M3120 5962 c0 -5 11 -22 25 -38 14 -16 25 -25 25 -20 0 4 -11 21 -25
38 -14 16 -25 25 -25 20z"/>
<path d="M2461 5904 c0 -11 3 -14 6 -6 3 7 2 16 -1 19 -3 4 -6 -2 -5 -13z"/>
<path d="M2610 5916 c0 -2 9 -6 20 -9 11 -3 18 -1 14 4 -5 9 -34 13 -34 5z"/>
<path d="M3330 5905 c0 -5 5 -17 10 -25 5 -8 10 -10 10 -5 0 6 -5 17 -10 25
-5 8 -10 11 -10 5z"/>
<path d="M2243 5883 c0 -9 4 -10 14 -2 7 6 13 12 13 14 0 1 -6 2 -13 2 -8 0
-14 -6 -14 -14z"/>
<path d="M2760 5889 c0 -5 5 -7 10 -4 6 3 10 8 10 11 0 2 -4 4 -10 4 -5 0 -10
-5 -10 -11z"/>
<path d="M3130 5890 c0 -5 5 -10 10 -10 6 0 10 5 10 10 0 6 -4 10 -10 10 -5 0
-10 -4 -10 -10z"/>
<path d="M2950 5860 c0 -5 5 -10 10 -10 6 0 10 5 10 10 0 6 -4 10 -10 10 -5 0
-10 -4 -10 -10z"/>
<path d="M2394 5842 c4 -7 -4 -24 -18 -39 -14 -15 -23 -29 -21 -31 5 -5 55 48
55 59 0 4 -5 11 -12 15 -7 4 -8 3 -4 -4z"/>
<path d="M2674 5822 c-4 -12 -12 -18 -22 -15 -10 2 -33 -3 -52 -12 l-35 -16
64 5 c36 2 67 9 71 16 4 7 25 16 46 20 l39 8 -37 1 c-20 0 -44 4 -53 7 -11 5
-18 0 -21 -14z"/>
<path d="M2818 5833 c7 -3 16 -2 19 1 4 3 -2 6 -13 5 -11 0 -14 -3 -6 -6z"/>
<path d="M3730 5809 c0 -5 5 -7 10 -4 6 3 10 8 10 11 0 2 -4 4 -10 4 -5 0 -10
-5 -10 -11z"/>
<path d="M2396 5773 c-6 -14 -5 -15 5 -6 7 7 10 15 7 18 -3 3 -9 -2 -12 -12z"/>
<path d="M2501 5748 c-59 -63 -105 -190 -104 -288 0 -46 -3 -67 -8 -55 -5 13
-8 15 -8 5 -1 -8 6 -28 14 -43 8 -15 9 -25 3 -21 -6 4 -9 1 -6 -7 3 -8 -1 -20
-8 -27 -10 -10 -8 -23 14 -70 l27 -59 5 36 c3 20 1 93 -4 163 -8 113 -7 135 9
190 19 62 45 119 69 148 14 16 28 50 21 50 -2 0 -13 -10 -24 -22z"/>
<path d="M3400 5751 c5 -11 15 -23 21 -27 6 -3 3 5 -6 20 -20 30 -30 35 -15 7z"/>
<path d="M3250 5700 c0 -5 5 -10 11 -10 5 0 7 5 4 10 -3 6 -8 10 -11 10 -2 0
-4 -4 -4 -10z"/>
<path d="M2340 5675 c0 -14 2 -25 4 -25 2 0 6 11 8 25 3 14 1 25 -3 25 -5 0
-9 -11 -9 -25z"/>
<path d="M3275 5681 c-3 -5 -2 -12 3 -15 5 -3 9 1 9 9 0 17 -3 19 -12 6z"/>
<path d="M2630 5665 c0 -8 4 -15 10 -15 5 0 7 7 4 15 -4 8 -8 15 -10 15 -2 0
-4 -7 -4 -15z"/>
<path d="M2921 5664 c0 -11 3 -14 6 -6 3 7 2 16 -1 19 -3 4 -6 -2 -5 -13z"/>
<path d="M3300 5653 c0 -5 22 -20 49 -34 57 -30 59 -13 2 19 -42 24 -51 26
-51 15z"/>
<path d="M3325 5570 c21 -22 41 -38 43 -35 5 5 -65 75 -76 75 -3 0 11 -18 33
-40z"/>
<path d="M3668 5603 c7 -3 16 -2 19 1 4 3 -2 6 -13 5 -11 0 -14 -3 -6 -6z"/>
<path d="M3410 5580 c0 -5 5 -10 10 -10 6 0 10 5 10 10 0 6 -4 10 -10 10 -5 0
-10 -4 -10 -10z"/>
<path d="M3440 5501 c0 -6 4 -11 9 -11 11 0 71 -125 71 -147 0 -9 3 -13 7 -10
8 8 -24 116 -40 137 -20 26 -47 44 -47 31z"/>
<path d="M3730 5417 c0 -26 -4 -47 -8 -47 -5 0 -17 -7 -28 -16 -10 -8 -14 -13
-8 -10 12 6 13 -58 1 -71 -5 -4 -5 0 -2 9 4 9 2 19 -4 23 -7 4 -11 -7 -11 -31
0 -34 1 -36 18 -22 15 13 35 15 93 10 9 -1 19 -9 23 -17 4 -12 2 -13 -13 -3
-20 12 -51 5 -51 -12 0 -5 5 -9 11 -7 6 1 13 -5 14 -13 2 -8 8 -26 13 -40 l11
-25 0 27 c1 14 -4 28 -11 30 -8 3 -6 7 4 11 27 10 39 -45 29 -140 -8 -82 -24
-116 -79 -172 -10 -10 -10 -17 -2 -25 8 -8 16 -5 31 13 10 13 19 19 19 13 0
-6 -7 -17 -15 -26 -9 -9 -11 -17 -5 -21 5 -3 26 27 46 67 33 65 38 83 42 170
4 87 2 100 -18 132 -25 41 -47 56 -84 56 -22 0 -26 5 -26 29 0 16 6 36 13 43
23 23 29 67 12 91 -14 21 -15 19 -15 -26z m70 -478 c-7 -11 -14 -18 -17 -15
-3 3 0 12 7 21 18 21 23 19 10 -6z"/>
<path d="M3691 5414 c-12 -27 -11 -28 4 -12 10 9 16 21 13 28 -2 7 -10 -1 -17
-16z"/>
<path d="M3175 5420 c31 -8 112 -13 104 -6 -2 2 -33 6 -69 9 -41 3 -54 2 -35
-3z"/>
<path d="M3076 5395 c-48 -12 -70 -30 -59 -48 3 -5 9 -3 14 4 6 11 14 11 43 1
20 -7 41 -10 46 -7 6 4 45 7 88 7 77 1 78 2 10 13 -21 3 -38 10 -38 14 0 8 83
6 143 -4 33 -6 36 12 3 21 -28 7 -150 0 -186 -10 -17 -5 -21 -5 -11 2 23 17
-2 20 -53 7z m31 -29 c0 -8 -8 -11 -19 -8 -10 2 -18 8 -18 13 0 5 8 9 18 9 10
0 19 -6 19 -14z m60 -2 c-3 -3 -12 -4 -19 -1 -8 3 -5 6 6 6 11 1 17 -2 13 -5z"/>
<path d="M3700 5385 c-7 -9 -8 -15 -2 -15 5 0 12 7 16 15 3 8 4 15 2 15 -2 0
-9 -7 -16 -15z"/>
<path d="M3290 5359 c0 -5 5 -7 10 -4 6 3 10 8 10 11 0 2 -4 4 -10 4 -5 0 -10
-5 -10 -11z"/>
<path d="M3355 5350 c3 -5 8 -10 11 -10 2 0 4 5 4 10 0 6 -5 10 -11 10 -5 0
-7 -4 -4 -10z"/>
<path d="M2357 5343 c-3 -5 -2 -15 2 -22 7 -10 10 -10 16 -1 4 6 3 16 -3 22
-5 5 -12 6 -15 1z"/>
<path d="M2550 5339 c-8 -4 -34 -16 -58 -26 -31 -13 -41 -23 -40 -38 3 -16 11
-20 48 -22 36 -1 40 0 20 7 -22 7 -19 8 20 11 117 7 137 7 170 0 25 -6 39 -4
48 6 10 11 9 13 -7 13 -10 0 -21 7 -25 15 -3 8 -18 15 -33 16 -25 0 -26 1 -8
10 13 6 -1 7 -44 3 -38 -4 -66 -2 -70 4 -3 5 -13 6 -21 1z m148 -35 c37 -10
25 -22 -15 -14 -43 7 -121 5 -152 -5 -24 -7 -44 2 -36 16 7 10 167 12 203 3z
m-211 -30 c-3 -3 -12 -4 -19 -1 -8 3 -5 6 6 6 11 1 17 -2 13 -5z"/>
<path d="M3036 5333 c-6 -14 -5 -15 5 -6 7 7 10 15 7 18 -3 3 -9 -2 -12 -12z"/>
<path d="M3000 5319 c0 -5 5 -7 10 -4 6 3 10 8 10 11 0 2 -4 4 -10 4 -5 0 -10
-5 -10 -11z"/>
<path d="M3522 5305 c-1 -11 5 -38 13 -60 8 -22 15 -51 16 -65 l1 -25 7 25 c5
14 4 29 -1 35 -4 5 -8 18 -8 30 0 12 -4 25 -9 31 -5 5 -11 18 -14 29 l-5 20 0
-20z"/>
<path d="M3595 5290 c-3 -5 -2 -10 4 -10 5 0 13 5 16 10 3 6 2 10 -4 10 -5 0
-13 -4 -16 -10z"/>
<path d="M3081 5278 c-13 -4 -21 -11 -18 -14 3 -3 14 -1 25 5 35 19 33 12 -11
-28 -23 -22 -40 -42 -37 -44 3 -3 34 -8 69 -12 46 -5 62 -4 57 4 -5 7 2 11 16
12 13 0 37 3 53 6 17 3 47 5 69 4 32 -1 36 2 27 13 -10 12 -8 13 10 9 15 -4
20 -3 15 5 -4 7 -16 12 -26 12 -10 0 -22 5 -26 11 -3 6 -15 9 -25 6 -11 -3
-17 -1 -14 3 11 17 -142 24 -184 8z m179 -44 c0 -7 -7 -14 -15 -18 -10 -4 -15
1 -15 15 0 12 -5 19 -12 16 -7 -2 -12 -10 -10 -16 3 -17 -28 -26 -41 -11 -10
10 -7 12 10 7 20 -4 21 -3 12 15 -10 18 -9 20 5 15 8 -3 18 -2 21 3 7 12 45
-10 45 -26z m-90 14 c0 -3 -9 -10 -21 -13 -16 -5 -18 -10 -8 -21 9 -12 5 -14
-25 -14 -42 0 -44 5 -14 37 19 21 68 29 68 11z"/>
<path d="M2960 5235 c-8 -9 -8 -15 -2 -15 12 0 26 19 19 26 -2 2 -10 -2 -17
-11z"/>
<path d="M3005 5240 c-3 -5 -1 -10 4 -10 6 0 11 5 11 10 0 6 -2 10 -4 10 -3 0
-8 -4 -11 -10z"/>
<path d="M2655 5233 c42 -6 52 -20 11 -15 -48 6 -105 -15 -143 -51 -18 -17
-33 -27 -33 -22 0 4 19 26 43 48 34 33 36 37 12 23 -40 -25 -82 -69 -78 -82 4
-12 53 -6 53 6 0 8 23 7 60 -3 14 -4 45 -4 69 0 36 7 45 13 48 33 5 31 12 38
23 20 5 -8 5 -19 0 -25 -7 -8 -1 -12 18 -12 l28 0 -16 32 c-8 18 -18 31 -22
29 -3 -2 -8 1 -10 7 -2 6 -24 12 -48 14 -25 1 -31 0 -15 -2z m-5 -34 c0 -5 -4
-7 -10 -4 -5 3 -10 -1 -10 -9 0 -9 5 -15 11 -13 6 1 14 -4 16 -10 7 -20 -15
-15 -37 7 -11 11 -20 16 -20 11 0 -5 7 -17 16 -25 18 -19 9 -20 -35 -5 -25 9
-29 14 -20 25 6 8 26 18 43 23 42 13 46 13 46 0z m34 -20 c-8 -14 -24 -10 -24
6 0 9 6 12 15 9 8 -4 12 -10 9 -15z"/>
<path d="M2988 5203 c7 -3 16 -2 19 1 4 3 -2 6 -13 5 -11 0 -14 -3 -6 -6z"/>
<path d="M3703 5193 c-18 -7 -16 -43 2 -43 9 0 15 9 15 25 0 14 -1 25 -2 24
-2 0 -9 -3 -15 -6z"/>
<path d="M2790 5156 c-5 -13 -17 -29 -27 -35 -10 -6 -13 -11 -7 -11 17 0 41
24 47 48 7 29 -1 28 -13 -2z"/>
<path d="M3250 5164 c-23 -10 -65 -16 -120 -16 -59 0 -76 -3 -55 -8 79 -20
197 -6 209 26 3 8 4 14 3 14 -1 -1 -18 -8 -37 -16z"/>
<path d="M2431 5154 c0 -11 3 -14 6 -6 3 7 2 16 -1 19 -3 4 -6 -2 -5 -13z"/>
<path d="M3591 5135 c-1 -17 -3 -17 -11 -5 -8 13 -10 13 -10 -2 0 -9 5 -20 10
-23 12 -7 24 19 17 37 -3 7 -6 4 -6 -7z"/>
<path d="M2685 5110 c-22 -10 -62 -20 -90 -23 -27 -3 -51 -6 -52 -6 -2 -1 -3
-5 -3 -10 0 -23 175 20 184 46 3 7 4 13 3 12 -1 0 -20 -9 -42 -19z"/>
<path d="M2364 5053 c4 -38 9 -97 12 -133 5 -77 17 -124 38 -145 9 -9 20 -34
26 -55 6 -22 16 -42 22 -46 8 -5 9 0 4 17 -5 13 -13 42 -20 64 -6 22 -20 52
-30 67 -14 22 -18 49 -19 135 -2 83 -6 111 -17 120 -11 9 -12 14 -3 23 14 15
33 5 33 -18 0 -15 2 -15 10 -2 18 29 11 40 -26 40 l-37 0 7 -67z"/>
<path d="M3669 5088 c-1 -18 -1 -49 0 -68 1 -19 -5 -49 -13 -65 -23 -44 -21
-67 7 -63 14 2 23 11 25 26 2 13 10 22 21 22 21 0 61 40 61 61 0 8 -12 1 -31
-18 -16 -18 -37 -33 -45 -33 -7 0 -14 -7 -14 -15 0 -8 -5 -15 -11 -15 -7 0 -8
7 -3 18 4 9 10 42 12 72 2 32 10 59 19 65 17 12 8 45 -13 45 -9 0 -15 -12 -15
-32z"/>
<path d="M5120 5110 c0 -5 7 -10 15 -10 8 0 15 5 15 10 0 6 -7 10 -15 10 -8 0
-15 -4 -15 -10z"/>
<path d="M2900 5100 c0 -5 5 -10 11 -10 5 0 7 5 4 10 -3 6 -8 10 -11 10 -2 0
-4 -4 -4 -10z"/>
<path d="M3751 5084 c0 -11 3 -14 6 -6 3 7 2 16 -1 19 -3 4 -6 -2 -5 -13z"/>
<path d="M5220 5090 c0 -5 7 -10 15 -10 8 0 15 5 15 10 0 6 -7 10 -15 10 -8 0
-15 -4 -15 -10z"/>
<path d="M2447 5049 c7 -7 15 -10 18 -7 3 3 -2 9 -12 12 -14 6 -15 5 -6 -5z"/>
<path d="M2411 5034 c0 -11 3 -14 6 -6 3 7 2 16 -1 19 -3 4 -6 -2 -5 -13z"/>
<path d="M2796 5042 c-2 -4 -1 -14 3 -21 6 -10 10 -9 14 3 6 16 -8 32 -17 18z"/>
<path d="M2945 5040 c3 -5 8 -10 11 -10 2 0 4 5 4 10 0 6 -5 10 -11 10 -5 0
-7 -4 -4 -10z"/>
<path d="M2831 5004 c0 -11 3 -14 6 -6 3 7 2 16 -1 19 -3 4 -6 -2 -5 -13z"/>
<path d="M3030 4995 c0 -9 51 -55 61 -55 6 0 7 -5 4 -10 -3 -6 0 -13 9 -16 9
-3 12 -12 9 -21 -4 -9 -2 -14 3 -10 5 3 22 -14 38 -39 15 -24 32 -44 37 -44
15 0 10 17 -6 24 -8 3 -15 12 -15 21 0 8 -4 15 -9 15 -5 0 -17 20 -28 45 -10
25 -22 45 -28 45 -5 0 -23 11 -39 25 -29 25 -36 29 -36 20z"/>
<path d="M2645 4948 c4 -11 0 -18 -14 -23 -21 -6 -29 -25 -11 -25 6 0 10 6 10
13 0 9 2 9 9 -1 6 -10 10 -8 14 9 4 13 2 28 -4 34 -7 7 -8 5 -4 -7z"/>
<path d="M2691 4944 c0 -11 3 -14 6 -6 3 7 2 16 -1 19 -3 4 -6 -2 -5 -13z"/>
<path d="M2713 4934 c-13 -13 -23 -28 -23 -34 0 -5 -5 -10 -11 -10 -6 0 -9 -8
-6 -19 3 -11 -4 -25 -19 -36 -34 -26 -30 -39 6 -18 18 10 30 26 30 38 0 22 25
63 49 81 8 6 10 13 5 16 -5 3 -19 -5 -31 -18z"/>
<path d="M3100 4861 c0 -5 -14 -14 -31 -21 -19 -8 -27 -16 -21 -22 16 -16 71
19 72 45 0 4 -4 7 -10 7 -5 0 -10 -4 -10 -9z"/>
<path d="M4370 4853 c-19 -8 -55 -19 -80 -23 -40 -7 -41 -8 -12 -9 41 -1 142
27 142 40 0 12 -8 11 -50 -8z"/>
<path d="M2965 4853 c-11 -3 -30 -14 -42 -25 -16 -15 -29 -19 -50 -14 -18 5
-24 4 -18 -2 22 -21 63 -23 77 -4 8 12 32 22 62 26 35 6 45 10 35 17 -15 9
-31 10 -64 2z"/>
<path d="M3733 4846 c3 -8 -2 -21 -12 -30 -25 -22 -38 -20 -17 3 10 11 13 22
8 25 -9 5 -26 -29 -23 -46 3 -18 -48 -6 -61 14 -15 22 -16 21 -23 -32 -15
-109 -21 -399 -9 -450 3 -14 6 -33 6 -42 -1 -10 4 -18 10 -18 6 0 5 -7 -3 -17
-11 -13 -11 -15 -1 -9 15 9 52 -19 52 -39 0 -30 -118 -123 -135 -107 -5 4 -5
1 -1 -6 8 -13 -18 -45 -28 -35 -3 4 -6 -1 -6 -11 0 -9 -11 -21 -24 -26 -13 -5
-29 -17 -34 -26 -9 -16 -12 -16 -29 -4 -16 14 -17 13 -5 -1 10 -13 10 -19 -2
-29 -9 -6 -20 -9 -25 -5 -6 3 -8 0 -5 -9 7 -17 -31 -40 -49 -30 -6 5 -5 -1 3
-11 9 -11 10 -16 2 -11 -7 4 -15 0 -19 -11 -7 -20 -43 -49 -55 -45 -5 1 -7 -1
-7 -6 4 -21 -3 -24 -15 -6 -14 19 -14 19 -13 -1 2 -16 -3 -19 -23 -18 -21 2
-22 1 -6 -5 17 -8 13 -12 -28 -33 -27 -13 -52 -33 -57 -45 -4 -12 -13 -25 -20
-30 -8 -5 -10 -3 -5 7 4 8 -1 3 -12 -11 -11 -13 -19 -27 -16 -31 6 -10 -24
-76 -38 -85 -8 -5 -9 -2 -5 10 4 10 3 15 -3 11 -5 -3 -23 8 -40 25 -28 29 -39
47 -22 36 12 -7 13 49 2 75 -9 20 -10 17 -6 -20 5 -48 -5 -45 -22 7 -7 19 -7
30 -2 27 6 -4 10 -2 10 4 0 5 -4 13 -10 16 -5 3 -10 15 -10 26 0 11 -4 17 -10
14 -5 -3 -10 0 -10 9 0 8 -11 36 -24 63 -29 59 -50 146 -42 175 3 12 0 28 -6
35 -6 7 -8 13 -4 13 3 0 1 12 -6 28 -6 15 -10 39 -9 55 1 15 -3 27 -8 27 -5 0
-11 6 -14 13 -2 6 -2 3 0 -8 2 -11 5 -27 7 -35 1 -8 6 -32 10 -53 7 -31 3 -47
-24 -101 -20 -41 -29 -72 -25 -85 4 -14 -12 -46 -58 -112 -52 -77 -69 -95 -98
-102 -18 -5 -38 -12 -44 -17 -5 -4 -41 -18 -80 -30 -38 -13 -140 -50 -225 -83
-85 -32 -186 -70 -225 -84 -82 -28 -129 -52 -207 -104 -32 -22 -64 -39 -72
-39 -21 0 -65 -39 -83 -73 -9 -18 -24 -61 -33 -97 -10 -36 -38 -132 -63 -215
-25 -82 -48 -161 -51 -175 -3 -14 -28 -52 -56 -85 -49 -57 -51 -62 -46 -107 5
-46 4 -46 -32 -61 -49 -20 -65 -40 -93 -117 -18 -51 -33 -75 -74 -112 -72 -65
-161 -185 -174 -233 -6 -22 -17 -49 -25 -60 -34 -50 -126 -237 -139 -286 -39
-140 -23 -450 30 -598 22 -62 36 -84 87 -133 67 -65 112 -92 171 -104 22 -4
137 -8 255 -9 118 0 241 -5 273 -9 l58 -9 -5 -41 c-3 -23 -8 -156 -11 -296 -7
-261 -20 -487 -31 -528 -5 -16 -2 -22 10 -22 10 0 15 4 12 9 -3 5 0 26 8 47 8
24 12 68 10 114 -2 41 -1 70 4 63 4 -6 7 28 8 75 1 260 5 336 14 322 8 -13 10
-13 10 2 0 9 -5 20 -10 23 -6 4 -8 11 -4 16 3 5 6 54 7 109 1 102 -8 130 -42
130 -9 0 -23 6 -30 13 -11 10 -12 9 -6 -1 6 -11 3 -12 -12 -4 -11 6 -30 8 -42
5 -17 -4 -20 -2 -15 13 3 11 2 15 -3 9 -4 -6 -76 -11 -168 -12 -88 0 -185 -2
-215 -3 -65 -2 -137 27 -187 74 -54 52 -71 65 -76 59 -3 -2 -11 11 -18 31 -7
19 -17 32 -22 29 -5 -3 -4 4 2 16 9 16 9 21 0 19 -6 -2 -13 6 -14 17 -1 11 -9
38 -17 60 -25 66 -32 391 -10 432 9 17 9 22 -1 26 -9 4 -9 6 0 6 18 1 45 70
38 95 -4 13 -3 16 2 9 6 -9 14 -4 27 17 18 31 12 42 -8 14 -10 -13 -12 -13
-12 4 0 13 7 19 21 18 11 -1 34 6 50 16 17 10 40 18 53 18 12 0 22 4 22 10 0
5 12 16 28 24 41 23 7 19 -40 -4 -23 -11 -47 -20 -52 -19 -6 0 -2 4 9 9 13 6
15 9 5 9 -19 1 -42 -13 -41 -25 1 -5 -2 -9 -6 -9 -5 0 -14 -4 -20 -8 -16 -10
-16 -5 -1 28 6 14 15 25 21 25 5 0 6 7 3 16 -3 8 2 26 11 40 12 19 18 22 25
12 7 -9 8 -4 5 15 -2 15 0 30 6 34 5 3 7 2 4 -4 -3 -5 0 -10 8 -10 10 0 12 4
5 12 -7 8 -5 26 5 55 19 53 34 73 52 66 8 -3 12 -2 9 3 -3 5 1 11 9 15 8 3 15
15 15 27 0 22 89 119 110 119 6 0 9 4 5 9 -3 6 4 15 15 21 11 6 20 15 20 21 0
6 -4 8 -9 5 -12 -8 41 97 54 106 6 5 4 8 -5 8 -11 0 -9 4 5 12 11 7 21 11 23
10 1 -1 16 5 32 13 17 9 30 11 30 6 0 -5 -6 -11 -12 -14 -7 -2 -10 -8 -5 -12
4 -5 12 -4 17 1 12 12 22 57 12 50 -4 -2 -8 4 -8 14 0 15 3 17 16 7 11 -8 10
-6 -2 8 -16 20 -19 48 -5 61 3 4 5 -2 3 -13 -3 -12 1 -20 10 -20 17 0 18 11 3
39 -9 17 -8 23 5 30 9 5 16 16 16 23 0 8 4 15 9 15 15 0 49 62 56 99 3 19 9
39 12 44 3 5 8 23 9 40 5 38 10 43 29 27 10 -8 15 -9 15 -1 0 6 -4 11 -9 11
-5 0 -12 7 -15 16 -3 8 -2 13 3 10 10 -6 25 24 16 32 -3 3 -5 -1 -5 -8 0 -7
-2 -11 -5 -8 -9 8 6 38 16 32 5 -3 6 1 3 9 -7 20 25 129 37 122 8 -6 14 25 10
49 -4 19 24 99 36 103 7 3 11 9 8 13 -3 4 1 10 8 13 9 3 13 -8 14 -36 2 -41
21 -134 32 -152 3 -5 6 -14 8 -20 1 -5 11 -42 21 -80 11 -41 18 -97 17 -135
-1 -39 1 -57 6 -45 18 46 9 140 -25 259 -38 134 -47 181 -39 202 7 20 61 46
76 38 7 -4 9 -4 5 1 -11 11 12 36 25 28 5 -3 7 -1 3 5 -6 10 14 23 89 59 17 8
38 18 47 23 10 6 19 6 23 1 3 -5 0 -11 -7 -13 -8 -3 -6 -6 4 -10 11 -5 15 -2
14 10 -3 16 42 48 52 37 3 -2 18 5 34 17 17 11 48 22 69 23 22 1 43 6 47 10 4
4 -4 4 -18 1 -22 -6 -23 -5 -7 4 10 7 27 10 38 7 10 -3 17 -1 14 3 -6 10 54
32 66 24 5 -3 9 0 9 6 0 6 5 8 11 5 5 -4 19 1 30 11 10 9 19 14 19 9 0 -4 8
-1 17 6 10 8 14 9 10 2 -4 -6 -3 -15 3 -18 6 -4 9 -1 8 6 -2 6 11 16 27 21 17
5 46 17 65 26 19 9 40 17 45 17 6 0 16 4 23 8 6 5 17 5 24 1 7 -4 8 -3 4 4 -8
13 23 31 43 24 8 -3 11 0 7 7 -4 6 -2 11 3 11 6 0 10 3 9 8 -2 4 4 17 13 30
l17 23 0 -28 c0 -15 -5 -33 -10 -40 -5 -7 -7 -16 -4 -21 5 -8 -3 -42 -25 -100
-6 -14 -5 -21 0 -18 14 9 5 -124 -23 -349 -7 -60 -13 -123 -13 -140 0 -16 -4
-82 -8 -145 -4 -63 -7 -143 -6 -177 2 -46 -1 -63 -11 -63 -10 0 -10 -2 1 -9
11 -7 13 -26 9 -81 -3 -40 -2 -67 2 -60 4 6 7 -47 6 -119 -1 -72 2 -131 7
-131 4 0 7 -5 7 -11 0 -5 -4 -8 -8 -5 -4 2 -8 -4 -8 -14 0 -10 4 -16 8 -14 4
3 8 -5 8 -18 0 -19 -2 -20 -11 -8 -8 12 -9 11 -4 -6 8 -29 15 -96 20 -185 l4
-77 -27 -5 c-15 -2 -36 -7 -47 -11 -15 -5 -14 -4 3 5 12 7 22 16 22 22 0 18
-79 -57 -80 -76 0 -4 -9 -26 -19 -50 -11 -23 -27 -67 -37 -97 -9 -30 -24 -61
-33 -68 -14 -12 -14 -13 2 -8 9 3 17 0 17 -6 0 -6 9 1 20 15 11 14 20 33 20
43 0 27 31 104 42 104 6 0 8 7 4 15 -3 8 2 28 12 44 15 27 23 30 102 41 107
14 103 13 106 32 1 11 -4 14 -18 10 -15 -4 -17 -7 -6 -13 9 -6 3 -9 -18 -9
-24 0 -33 5 -38 22 -4 13 -12 220 -18 462 -11 453 -7 604 28 868 7 59 11 115
8 125 -5 15 -4 16 6 3 9 -12 10 -10 8 11 -1 14 5 33 15 43 9 10 17 21 17 25 0
4 12 14 28 21 21 11 23 14 10 17 -10 3 -16 12 -15 21 4 21 26 61 27 46 0 -9
30 -17 30 -7 0 2 -10 19 -22 38 -23 35 -47 42 -56 16 -3 -10 0 -12 12 -8 9 4
16 2 16 -3 0 -21 -62 -150 -72 -150 -3 0 -2 15 3 32 5 18 6 41 3 51 -3 10 1
41 10 70 24 84 58 245 55 264 -3 19 28 111 43 127 4 6 8 -4 8 -21 0 -18 -4
-35 -10 -38 -5 -3 -9 -18 -9 -33 2 -26 2 -26 6 -3 4 21 8 16 25 -30 11 -29 38
-110 59 -179 37 -119 41 -127 91 -172 58 -54 78 -60 78 -24 0 30 42 112 76
147 13 14 21 29 17 34 -5 4 -2 5 5 1 7 -4 28 5 50 22 20 16 42 31 49 33 25 9
432 371 438 390 3 10 8 29 11 40 4 14 2 19 -5 15 -6 -4 -19 -2 -30 3 -34 19
-43 91 -39 319 l3 214 28 -6 c51 -10 131 43 112 74 -10 15 -28 12 -22 -4z"/>
<path d="M2730 4830 c-13 -9 -12 -13 9 -30 13 -11 31 -20 40 -20 10 0 6 7 -14
20 l-30 20 55 0 c39 0 51 3 40 10 -20 13 -81 12 -100 0z"/>
<path d="M2660 4800 c-8 -5 -10 -10 -5 -10 6 0 5 -3 -1 -8 -6 -4 -14 -18 -18
-32 -8 -28 4 -16 30 33 16 30 16 31 -6 17z"/>
<path d="M2990 4770 c0 -5 5 -10 10 -10 6 0 10 5 10 10 0 6 -4 10 -10 10 -5 0
-10 -4 -10 -10z"/>
<path d="M2855 4760 c-3 -6 1 -7 9 -4 18 7 21 14 7 14 -6 0 -13 -4 -16 -10z"/>
<path d="M3040 4760 c0 -5 -6 -10 -14 -10 -8 0 -17 -6 -20 -12 -5 -10 -7 -10
-12 0 -7 15 -34 16 -34 1 0 -6 -7 -3 -16 5 -8 9 -20 16 -27 16 -6 0 -1 -9 11
-20 26 -24 79 -26 110 -4 23 16 29 34 12 34 -5 0 -10 -4 -10 -10z"/>
<path d="M2748 4732 c-39 -18 -44 -27 -28 -52 6 -10 10 -11 10 -2 0 6 9 12 19
12 11 0 23 5 26 11 4 6 13 8 21 5 8 -3 11 0 8 8 -3 8 -15 12 -27 10 -21 -4
-21 -4 -2 4 11 5 25 7 31 5 7 -2 15 0 19 6 9 16 -34 12 -77 -7z m12 -26 c0 -2
-9 -6 -20 -9 -11 -3 -18 -1 -14 4 5 9 34 13 34 5z"/>
<path d="M2848 4733 c-10 -2 -18 -8 -18 -13 0 -8 50 -24 56 -17 6 6 -7 37 -15
36 -3 -1 -14 -3 -23 -6z"/>
<path d="M3095 4730 c3 -5 8 -10 11 -10 2 0 4 5 4 10 0 6 -5 10 -11 10 -5 0
-7 -4 -4 -10z"/>
<path d="M3125 4720 c-3 -6 1 -7 9 -4 18 7 21 14 7 14 -6 0 -13 -4 -16 -10z"/>
<path d="M3185 4720 c3 -5 8 -10 11 -10 2 0 4 5 4 10 0 6 -5 10 -11 10 -5 0
-7 -4 -4 -10z"/>
<path d="M3154 4698 c-3 -4 11 -8 30 -8 20 0 36 2 36 4 0 8 -61 12 -66 4z"/>
<path d="M2652 4683 c-11 -21 3 -67 17 -58 5 3 8 18 5 33 -3 20 -2 23 5 12 12
-18 26 -7 18 15 -8 20 -34 19 -45 -2z"/>
<path d="M2920 4670 c-17 -17 -19 -50 -3 -50 3 0 3 7 -1 15 -4 10 1 15 15 15
11 0 17 5 14 10 -3 6 -1 10 4 10 6 0 11 5 11 10 0 16 -18 12 -40 -10z"/>
<path d="M3240 4677 c-14 -11 -14 -14 2 -29 16 -16 17 -16 15 12 -1 17 -2 30
-2 30 0 -1 -7 -6 -15 -13z"/>
<path d="M2771 4659 c-24 -11 -42 -21 -40 -23 7 -7 59 6 59 15 0 5 11 9 24 9
14 0 28 5 31 10 10 16 -26 10 -74 -11z"/>
<path d="M3080 4660 c8 -5 22 -10 30 -10 13 0 13 1 0 10 -8 5 -22 10 -30 10
-13 0 -13 -1 0 -10z"/>
<path d="M2476 4635 c8 -37 14 -45 14 -19 0 10 -5 26 -10 34 -8 11 -9 7 -4
-15z"/>
<path d="M2870 4640 c0 -5 5 -10 11 -10 5 0 7 5 4 10 -3 6 -8 10 -11 10 -2 0
-4 -4 -4 -10z"/>
<path d="M3140 4643 c0 -5 -12 -10 -27 -11 -48 -4 -37 -12 16 -12 38 0 51 4
49 13 -5 14 -38 23 -38 10z"/>
<path d="M2620 4625 c-10 -12 -10 -18 0 -30 6 -8 9 -19 5 -25 -10 -16 4 -12
23 8 9 9 15 16 13 15 -10 -6 -29 20 -24 33 7 18 -1 18 -17 -1z"/>
<path d="M2684 4619 c-3 -6 4 -18 17 -27 28 -19 34 -18 34 4 0 20 -41 38 -51
23z"/>
<path d="M2816 4623 c-8 -8 -13 -10 -46 -12 -11 0 -20 -5 -20 -10 0 -11 53
-23 95 -22 17 1 45 1 63 2 17 0 32 5 32 10 0 5 21 9 48 9 26 0 54 5 62 11 23
16 -115 3 -182 -17 -10 -3 -18 -1 -18 5 0 6 -5 11 -11 11 -8 0 -8 -5 1 -15 10
-12 10 -15 -3 -15 -22 0 -31 18 -17 35 13 15 9 21 -4 8z"/>
<path d="M3120 4600 c0 -6 -15 -19 -32 -30 -18 -11 -26 -20 -18 -20 9 0 30 14
48 30 22 20 28 30 18 30 -9 0 -16 -5 -16 -10z"/>
<path d="M2501 4571 c-2 -44 68 -160 135 -224 101 -96 203 -138 340 -140 47
-1 87 0 89 3 2 3 -4 6 -13 7 -66 3 -108 7 -117 12 -5 3 -26 4 -46 2 -21 -1
-51 4 -67 13 -16 8 -32 12 -36 9 -3 -4 -6 -1 -6 5 0 7 -5 12 -11 12 -11 0 -39
21 -129 98 -19 17 -31 34 -27 38 4 5 12 2 17 -6 6 -8 10 -10 10 -5 0 6 -5 17
-10 25 -9 13 -11 13 -19 0 -6 -8 -12 -12 -14 -10 -33 42 -56 78 -50 83 3 4 1
7 -5 7 -6 0 -18 21 -26 48 -9 30 -15 39 -15 23z"/>
<path d="M2760 4560 c-9 -6 -7 -11 8 -19 24 -13 36 -2 17 16 -6 6 -18 7 -25 3z"/>
<path d="M2885 4547 c-4 -10 -5 -21 -1 -24 10 -10 18 4 13 24 -4 17 -4 17 -12
0z"/>
<path d="M3040 4540 c0 -6 -5 -8 -10 -5 -6 4 -18 1 -27 -7 -9 -7 -18 -12 -20
-10 -1 1 -2 -1 0 -5 2 -9 4 -8 50 10 20 9 27 16 19 21 -7 4 -12 2 -12 -4z"/>
<path d="M2800 4518 c0 -14 30 -22 41 -11 7 7 2 12 -15 15 -14 3 -26 1 -26 -4z"/>
<path d="M2925 4510 c-3 -5 1 -10 9 -10 8 0 18 5 21 10 3 6 -1 10 -9 10 -8 0
-18 -4 -21 -10z"/>
<path d="M2860 4468 c0 -11 72 -9 90 2 11 7 0 9 -37 7 -29 -1 -53 -5 -53 -9z"/>
<path d="M3281 4224 c0 -11 3 -14 6 -6 3 7 2 16 -1 19 -3 4 -6 -2 -5 -13z"/>
<path d="M3744 4146 c5 -27 -1 -47 -29 -101 -60 -112 -114 -192 -202 -299 -47
-55 -101 -130 -120 -166 -20 -36 -70 -123 -111 -195 -79 -136 -161 -294 -199
-383 -30 -68 -39 -68 -12 1 65 165 140 312 223 437 20 30 36 58 36 62 0 4 14
27 30 51 17 25 30 49 30 53 0 15 -47 -46 -97 -126 -26 -41 -50 -77 -54 -80
-11 -8 -123 -247 -164 -350 -53 -133 -165 -475 -218 -665 -42 -147 -107 -397
-107 -409 0 -2 15 0 33 5 17 5 134 11 260 14 125 2 256 9 290 16 34 6 88 8
119 5 70 -8 248 -67 289 -96 16 -12 32 -21 33 -19 2 2 13 23 25 46 22 44 15
62 -8 20 -7 -14 -21 -22 -34 -22 -31 2 -58 15 -51 26 3 5 -3 6 -12 2 -11 -4
-15 -3 -10 5 3 6 1 14 -5 18 -8 5 -9 3 -4 -6 6 -10 4 -12 -11 -6 -10 5 -26 9
-34 10 -8 1 -26 7 -40 13 -29 13 -72 24 -115 29 -16 2 -34 4 -40 5 -10 1 -101
-7 -175 -16 -88 -11 -270 -11 -270 0 0 20 107 306 127 340 12 20 12 20 27 0 9
-12 15 -15 16 -7 0 7 4 11 9 7 5 -3 12 -1 15 4 4 5 41 12 84 16 42 4 93 11
113 16 20 5 59 11 85 14 27 3 60 8 74 10 19 4 22 3 10 -5 -8 -5 -10 -10 -5
-10 6 0 16 5 22 11 11 11 91 21 161 21 18 0 30 2 28 6 -2 4 15 8 37 8 73 3
126 15 121 29 -3 7 -1 16 5 20 32 19 -9 71 -54 69 -100 -6 -125 -10 -125 -18
0 -4 -6 -6 -13 -3 -8 3 -43 1 -78 -5 -35 -5 -78 -11 -95 -12 -17 -2 -36 -6
-42 -10 -6 -4 -26 -6 -44 -5 -38 1 -195 -25 -251 -42 -20 -7 -39 -10 -42 -7
-10 10 219 394 255 428 3 3 17 23 33 46 15 22 40 54 55 70 15 16 52 58 82 94
30 36 76 87 102 113 26 27 48 55 48 63 0 9 5 12 10 9 6 -3 10 1 10 9 0 9 6 16
14 16 18 0 30 17 17 24 -13 8 -43 -23 -251 -259 -98 -111 -237 -312 -313 -453
-81 -150 -100 -181 -109 -176 -4 3 -8 2 -7 -3 1 -4 -3 -21 -9 -36 -7 -16 -12
-33 -12 -38 0 -6 -7 -24 -16 -40 -16 -32 -74 -190 -100 -272 l-15 -47 -84 2
c-47 2 -85 -1 -85 -6 0 -5 -2 -7 -5 -4 -8 8 17 118 27 118 5 0 7 13 3 29 -3
17 -2 32 4 36 6 3 11 17 11 31 0 13 5 24 11 24 6 0 8 9 4 20 -4 11 -2 20 4 20
6 0 7 7 4 17 -5 12 -3 14 7 8 9 -5 11 -4 6 4 -4 6 -2 28 5 49 8 20 14 46 16
57 4 38 21 100 22 83 0 -9 5 -19 10 -23 6 -3 7 6 2 22 -10 34 -4 56 12 47 9
-5 9 -4 0 6 -9 9 -8 22 2 51 8 22 12 39 9 39 -2 0 1 10 8 23 7 12 13 25 14 30
1 4 3 10 4 15 1 4 2 11 1 16 -1 4 5 19 14 32 8 13 15 28 15 34 0 16 39 100 60
130 10 14 19 30 20 35 2 6 16 39 32 74 15 35 31 74 34 87 3 13 11 21 17 17 5
-3 7 -1 3 5 -3 6 1 17 9 25 8 9 15 23 15 33 0 14 3 15 18 3 14 -11 15 -11 5 1
-15 16 -17 34 -4 25 5 -3 13 0 17 6 4 8 3 9 -4 5 -7 -4 -12 -2 -12 4 0 6 7 13
15 16 8 4 15 14 15 25 0 10 8 26 18 36 10 10 29 38 41 63 13 24 30 49 38 56 9
6 13 16 9 22 -4 7 -3 12 2 12 9 0 25 37 23 52 0 4 6 5 15 1 13 -5 15 -2 9 18
-7 21 -6 22 9 10 17 -15 23 -2 6 15 -8 8 -6 15 5 24 8 7 15 17 15 23 0 5 16
25 35 44 19 19 35 38 35 43 0 5 9 14 20 20 11 6 20 16 20 23 0 7 8 21 17 32
12 16 14 16 10 3 -3 -10 -3 -19 1 -22 4 -3 9 5 9 16 1 12 16 38 33 59 16 21
44 64 62 96 17 32 38 63 46 69 8 6 12 16 9 21 -4 6 0 13 8 17 8 3 15 15 15 26
0 11 6 20 13 20 9 0 9 2 -1 9 -10 6 -9 11 5 22 10 7 15 9 11 5 -8 -10 24 -60
62 -95 14 -13 20 -21 14 -18 -6 4 -11 0 -11 -8 0 -18 9 -19 25 -3 9 9 12 8 12
-4 0 -9 9 -23 20 -31 11 -8 17 -17 13 -20 -3 -4 1 -7 11 -7 9 0 14 -5 11 -10
-4 -6 -3 -10 2 -9 20 4 91 -34 87 -46 -7 -18 12 -28 32 -17 16 9 92 -20 105
-40 3 -5 14 -6 25 -2 16 5 17 4 4 -6 -13 -10 -12 -11 4 -6 11 4 23 0 30 -10 7
-9 25 -18 41 -20 16 -1 34 -10 41 -18 6 -9 23 -16 37 -16 14 0 29 -4 32 -10 3
-5 16 -10 28 -10 18 0 19 -2 7 -10 -13 -8 -12 -10 5 -11 11 -1 26 -1 34 0 7 2
10 -3 6 -9 -3 -6 -3 -10 2 -9 13 3 75 -27 73 -35 -1 -4 2 -11 6 -14 4 -4 4 -1
-1 7 -5 9 -3 12 6 9 8 -3 13 -15 13 -27 -1 -21 -1 -21 17 -5 11 9 19 13 19 7
0 -5 18 -18 39 -29 22 -10 37 -23 33 -28 -3 -5 2 -6 12 -3 9 4 14 3 11 -2 -3
-5 -1 -12 5 -16 5 -3 10 0 10 7 0 8 5 6 11 -4 5 -10 16 -18 23 -18 7 0 25 -11
39 -24 15 -14 35 -30 44 -36 16 -10 16 -11 -2 -5 -16 5 -17 4 -8 -6 10 -10 15
-9 28 1 14 11 19 7 16 -13 -1 -5 3 -6 8 -2 15 9 71 -23 71 -40 0 -8 6 -15 13
-15 13 0 42 -47 39 -62 -1 -5 1 -7 6 -7 19 3 25 -2 12 -11 -12 -8 -12 -12 -2
-18 7 -5 21 -37 31 -73 10 -35 22 -73 27 -83 5 -14 4 -17 -5 -11 -10 6 -11 3
-3 -11 13 -24 8 -173 -7 -238 -6 -26 -25 -74 -40 -106 -16 -32 -27 -61 -24
-63 7 -8 -8 -77 -16 -72 -4 2 -7 -9 -6 -25 1 -17 -1 -30 -5 -30 -7 0 -11 -20
-27 -119 -4 -24 -8 -30 -15 -20 -6 10 -7 6 -2 -11 4 -14 7 -29 7 -35 -1 -19
-13 -100 -18 -125 -2 -14 -11 -63 -19 -110 -8 -47 -20 -110 -27 -140 -7 -30
-12 -61 -10 -68 4 -21 -20 -44 -34 -32 -8 7 -12 5 -12 -4 0 -8 8 -13 19 -11
22 5 22 3 5 -38 -8 -18 -12 -38 -10 -44 3 -7 0 -13 -7 -13 -6 0 -10 -6 -8 -12
3 -15 -20 -106 -33 -130 -6 -13 -5 -18 3 -18 9 0 8 -3 -2 -10 -10 -6 -14 -24
-13 -57 1 -33 -1 -43 -8 -32 -7 10 -8 2 -4 -24 3 -22 1 -36 -4 -33 -5 3 -7 -4
-3 -16 3 -13 1 -19 -5 -15 -6 4 -9 -5 -7 -23 2 -17 -1 -30 -6 -30 -6 0 -10 -9
-10 -20 0 -10 -9 -43 -19 -72 -19 -53 -34 -104 -36 -123 -1 -5 -6 -26 -13 -45
-6 -19 -13 -54 -14 -77 -2 -22 -6 -39 -9 -37 -3 2 -6 -9 -6 -24 -1 -15 -3 -34
-5 -42 -3 -8 -9 -35 -13 -60 -7 -35 -10 -40 -16 -25 -5 13 -6 7 -5 -20 2 -41
-26 -108 -64 -152 -10 -12 -16 -23 -14 -26 2 -2 -2 -10 -11 -17 -8 -7 -15 -19
-15 -27 0 -9 -6 -13 -14 -10 -11 4 -13 -1 -10 -20 4 -20 1 -24 -10 -20 -13 5
-14 3 -4 -13 7 -10 15 -17 19 -14 4 2 9 -5 12 -16 3 -11 1 -23 -5 -26 -6 -4
-5 -10 3 -15 8 -4 15 -20 16 -35 1 -15 5 -34 9 -43 11 -23 11 -28 13 -67 0
-19 5 -33 9 -30 4 2 7 -11 7 -31 -1 -19 -8 -39 -16 -44 -8 -5 -9 -9 -3 -9 5 0
15 5 22 12 16 16 16 -4 0 -21 -10 -11 -10 -12 -1 -7 8 4 14 -3 18 -21 3 -15
12 -50 21 -76 8 -26 12 -58 9 -70 -5 -16 -4 -18 3 -8 8 11 12 9 22 -9 8 -15 8
-20 1 -16 -17 11 -13 -10 4 -24 28 -23 28 -1 0 76 -15 42 -29 89 -31 103 -1
14 -7 44 -13 66 -6 22 -20 83 -31 135 -12 52 -28 123 -36 158 -16 62 -16 62 9
92 45 53 104 173 121 245 9 39 23 111 30 162 8 51 20 101 25 112 6 11 11 29
11 39 0 11 16 67 35 124 19 56 48 168 64 248 16 80 42 190 57 245 33 123 77
350 100 510 20 145 78 394 104 445 60 117 70 299 25 446 -46 151 -89 212 -191
266 -34 18 -94 54 -135 79 -41 25 -101 62 -134 81 -67 40 -508 248 -570 269
-40 14 -170 135 -243 227 -41 51 -56 54 -48 8z m321 -276 c-3 -5 -10 -10 -16
-10 -5 0 -9 5 -9 10 0 6 7 10 16 10 8 0 12 -4 9 -10z m210 -88 c-3 -3 -11 0
-18 7 -9 10 -8 11 6 5 10 -3 15 -9 12 -12z m-375 -1260 l0 -28 -187 -23 c-161
-19 -469 -63 -555 -78 -23 -4 -26 -2 -21 16 6 23 27 30 153 55 71 14 133 23
415 62 66 8 121 17 122 18 1 1 18 3 38 4 32 2 35 1 35 -26z"/>
<path d="M3526 4148 c3 -5 10 -6 15 -3 13 9 11 12 -6 12 -8 0 -12 -4 -9 -9z"/>
<path d="M3565 4149 c-4 -6 -4 -13 -1 -16 3 -4 6 -1 6 6 0 7 5 9 12 5 7 -4 8
-3 4 4 -9 15 -13 15 -21 1z"/>
<path d="M3656 4092 c-3 -5 1 -9 9 -9 8 0 12 4 9 9 -3 4 -7 8 -9 8 -2 0 -6 -4
-9 -8z"/>
<path d="M3060 4060 c0 -5 5 -10 11 -10 5 0 7 5 4 10 -3 6 -8 10 -11 10 -2 0
-4 -4 -4 -10z"/>
<path d="M3460 4040 c0 -5 5 -10 10 -10 6 0 10 5 10 10 0 6 -4 10 -10 10 -5 0
-10 -4 -10 -10z"/>
<path d="M3560 4025 c0 -7 30 -13 34 -7 3 4 -4 9 -15 9 -10 1 -19 0 -19 -2z"/>
<path d="M2772 3890 c0 -14 2 -19 5 -12 2 6 2 18 0 25 -3 6 -5 1 -5 -13z"/>
<path d="M4140 3906 c0 -2 8 -10 18 -17 15 -13 16 -12 3 4 -13 16 -21 21 -21
13z"/>
<path d="M2783 3821 c-5 -38 -5 -67 -1 -65 4 3 8 22 8 42 0 27 3 33 10 22 6
-10 7 -2 3 25 -3 22 -7 41 -8 43 -1 1 -6 -29 -12 -67z"/>
<path d="M4003 3855 c0 -8 4 -12 9 -9 5 3 6 10 3 15 -9 13 -12 11 -12 -6z"/>
<path d="M3556 3843 c-6 -14 -5 -15 5 -6 7 7 10 15 7 18 -3 3 -9 -2 -12 -12z"/>
<path d="M3656 3848 c3 -5 10 -6 15 -3 13 9 11 12 -6 12 -8 0 -12 -4 -9 -9z"/>
<path d="M3247 3773 c-16 -3 -31 -11 -34 -19 -3 -7 -9 -11 -14 -8 -11 7 -51
-21 -42 -29 3 -4 1 -7 -5 -7 -7 0 -12 -5 -12 -11 0 -6 13 -1 29 10 16 12 36
21 44 21 9 0 18 4 21 9 5 8 14 8 45 2 2 -1 -3 -9 -10 -18 -8 -10 -9 -14 -2
-10 6 4 14 3 18 -2 3 -6 12 -8 20 -5 10 4 17 -7 25 -35 6 -23 15 -41 21 -41
12 0 3 35 -17 67 -17 28 -18 36 -1 27 7 -4 9 -3 4 2 -5 5 -14 9 -20 9 -7 1
-11 6 -9 13 1 7 -1 11 -5 11 -20 -3 -34 2 -28 11 3 6 5 9 3 9 -2 -1 -16 -4
-31 -6z"/>
<path d="M3020 3756 c0 -2 7 -7 16 -10 8 -3 12 -2 9 4 -6 10 -25 14 -25 6z"/>
<path d="M4530 3756 c0 -2 7 -7 16 -10 8 -3 12 -2 9 4 -6 10 -25 14 -25 6z"/>
<path d="M2510 3740 c-9 -6 -10 -10 -3 -10 6 0 15 5 18 10 8 12 4 12 -15 0z"/>
<path d="M3070 3741 c0 -6 4 -13 10 -16 6 -3 7 1 4 9 -7 18 -14 21 -14 7z"/>
<path d="M2755 3730 c3 -5 8 -10 11 -10 2 0 4 5 4 10 0 6 -5 10 -11 10 -5 0
-7 -4 -4 -10z"/>
<path d="M3046 3713 c-6 -14 -5 -15 5 -6 7 7 10 15 7 18 -3 3 -9 -2 -12 -12z"/>
<path d="M3185 3701 c-3 -5 -2 -12 3 -15 5 -3 9 1 9 9 0 17 -3 19 -12 6z"/>
<path d="M3103 3672 c-13 -15 -23 -31 -23 -37 1 -5 8 -1 16 10 8 11 20 19 25
18 5 -2 9 6 9 17 0 25 0 25 -27 -8z"/>
<path d="M2830 3676 c0 -15 24 -28 34 -19 7 7 -13 33 -25 33 -5 0 -9 -6 -9
-14z"/>
<path d="M3360 3681 c0 -6 4 -13 10 -16 6 -3 7 1 4 9 -7 18 -14 21 -14 7z"/>
<path d="M2346 3668 c3 -5 10 -6 15 -3 13 9 11 12 -6 12 -8 0 -12 -4 -9 -9z"/>
<path d="M2800 3656 c0 -2 8 -10 18 -17 15 -13 16 -12 3 4 -13 16 -21 21 -21
13z"/>
<path d="M3237 3637 c-5 -13 -42 -28 -114 -47 -24 -6 -43 -14 -43 -19 0 -16
147 34 164 56 9 13 13 23 8 23 -6 0 -12 -6 -15 -13z"/>
<path d="M2435 3630 c-3 -6 1 -7 9 -4 18 7 21 14 7 14 -6 0 -13 -4 -16 -10z"/>
<path d="M2836 3622 c-3 -6 -1 -14 5 -17 15 -10 25 3 12 16 -7 7 -13 7 -17 1z"/>
<path d="M3095 3620 c-4 -6 -10 -8 -14 -6 -4 3 -8 -1 -8 -9 0 -13 4 -12 19 2
18 16 22 23 14 23 -3 0 -8 -5 -11 -10z"/>
<path d="M3775 3610 c-16 -11 -27 -20 -24 -20 11 0 79 30 79 35 0 11 -27 4
-55 -15z"/>
<path d="M2807 3593 c30 -27 40 -24 22 5 -7 11 -21 20 -31 19 -15 -1 -14 -5 9
-24z"/>
<path d="M2778 3583 c7 -3 16 -2 19 1 4 3 -2 6 -13 5 -11 0 -14 -3 -6 -6z"/>
<path d="M3050 3570 c0 -5 5 -10 10 -10 6 0 10 5 10 10 0 6 -4 10 -10 10 -5 0
-10 -4 -10 -10z"/>
<path d="M3284 3559 c0 -20 11 -25 20 -10 3 5 0 13 -7 19 -10 8 -13 6 -13 -9z"/>
<path d="M3190 3558 c0 -4 -6 -8 -14 -8 -8 0 -27 -5 -43 -11 -21 -8 -24 -12
-14 -19 9 -5 20 -3 28 6 8 8 23 14 32 14 10 0 24 6 30 13 8 10 7 14 -4 14 -8
0 -15 -4 -15 -9z"/>
<path d="M2940 3551 c-8 -6 -19 -7 -25 -4 -5 4 -2 -3 9 -15 15 -18 22 -19 40
-10 13 7 16 13 8 16 -6 2 -10 8 -6 13 7 12 -7 11 -26 0z"/>
<path d="M2190 3530 c-9 -6 -10 -10 -3 -10 6 0 15 5 18 10 8 12 4 12 -15 0z"/>
<path d="M3050 3532 c0 -7 -13 -12 -29 -12 -16 0 -39 -10 -55 -25 -28 -26 -32
-40 -14 -51 7 -4 8 -3 4 4 -4 7 2 21 13 33 15 16 26 19 49 14 25 -5 31 -3 37
15 4 12 4 24 1 27 -3 4 -6 1 -6 -5z"/>
<path d="M2884 3480 c2 -22 6 -43 10 -47 3 -3 6 -16 7 -27 0 -12 7 1 15 28 12
36 12 52 4 60 -8 8 -10 7 -5 -6 4 -9 2 -25 -5 -35 -10 -16 -10 -15 -5 5 4 14
2 22 -5 22 -7 0 -10 8 -7 20 3 11 1 20 -4 20 -5 0 -7 -18 -5 -40z"/>
<path d="M3215 3490 c-3 -5 -1 -10 4 -10 6 0 11 5 11 10 0 6 -2 10 -4 10 -3 0
-8 -4 -11 -10z"/>
<path d="M2330 3420 c-9 -6 -10 -10 -3 -10 6 0 15 5 18 10 8 12 4 12 -15 0z"/>
<path d="M3870 3420 c0 -5 5 -10 11 -10 5 0 7 5 4 10 -3 6 -8 10 -11 10 -2 0
-4 -4 -4 -10z"/>
<path d="M3825 3380 c-10 -11 -13 -20 -7 -20 7 0 12 5 12 10 0 6 7 10 15 10 8
0 15 5 15 10 0 16 -15 12 -35 -10z"/>
<path d="M2883 3364 c-15 -16 -16 -24 -4 -24 8 0 24 30 19 35 -2 2 -9 -3 -15
-11z"/>
<path d="M4420 3293 c0 -5 -23 -33 -51 -63 -28 -30 -58 -67 -67 -82 -9 -16
-19 -28 -23 -28 -3 0 -14 -18 -24 -40 -10 -22 -24 -40 -30 -40 -13 0 -26 -22
-24 -43 0 -7 4 -2 10 11 5 13 13 21 17 18 5 -3 19 13 31 34 12 22 27 45 34 52
7 7 31 38 54 68 23 31 54 66 68 80 14 13 25 27 25 32 0 10 -20 11 -20 1z"/>
<path d="M2770 3265 c0 -17 5 -25 13 -22 6 2 12 12 12 22 0 10 -6 20 -12 23
-8 2 -13 -6 -13 -23z"/>
<path d="M5104 3239 c-3 -6 -2 -15 3 -20 5 -5 9 -1 9 11 0 23 -2 24 -12 9z"/>
<path d="M1625 3130 c-3 -5 -1 -10 4 -10 6 0 11 5 11 10 0 6 -2 10 -4 10 -3 0
-8 -4 -11 -10z"/>
<path d="M3177 3109 c4 -13 8 -18 11 -10 2 7 -1 18 -6 23 -8 8 -9 4 -5 -13z"/>
<path d="M2850 3103 c0 -25 -10 -29 -27 -12 -7 7 -12 2 -15 -20 -5 -33 7 -43
15 -13 3 9 5 2 6 -17 0 -19 4 -31 9 -27 7 8 9 13 11 46 0 11 8 20 16 20 8 0
20 10 26 23 11 20 11 21 -5 8 -15 -13 -19 -13 -27 0 -7 11 -9 9 -9 -8z"/>
<path d="M2932 3104 c-11 -12 -10 -17 2 -30 9 -8 16 -20 16 -27 0 -19 -41 -56
-56 -50 -10 4 -12 0 -8 -11 5 -12 10 -14 19 -6 6 5 15 7 18 3 4 -3 7 1 7 11 0
9 4 15 9 12 14 -9 23 42 11 63 -5 11 -7 27 -4 35 8 20 3 20 -14 0z"/>
<path d="M2897 3039 c6 -23 9 -24 16 -5 3 8 0 17 -7 19 -10 4 -12 -1 -9 -14z"/>
<path d="M1481 2944 c0 -11 3 -14 6 -6 3 7 2 16 -1 19 -3 4 -6 -2 -5 -13z"/>
<path d="M4170 2949 c0 -5 5 -7 10 -4 6 3 10 8 10 11 0 2 -4 4 -10 4 -5 0 -10
-5 -10 -11z"/>
<path d="M4140 2880 c0 -5 5 -10 10 -10 6 0 10 5 10 10 0 6 -4 10 -10 10 -5 0
-10 -4 -10 -10z"/>
<path d="M4131 2844 c0 -11 3 -14 6 -6 3 7 2 16 -1 19 -3 4 -6 -2 -5 -13z"/>
<path d="M1821 2828 c0 -9 -4 -25 -7 -35 -5 -17 -5 -17 6 0 6 10 9 25 7 35 -4
15 -5 15 -6 0z"/>
<path d="M1775 2810 c-3 -5 -1 -10 4 -10 6 0 11 5 11 10 0 6 -2 10 -4 10 -3 0
-8 -4 -11 -10z"/>
<path d="M2692 2760 c0 -14 2 -19 5 -12 2 6 2 18 0 25 -3 6 -5 1 -5 -13z"/>
<path d="M4815 2681 c-3 -6 -26 -20 -50 -32 -25 -12 -43 -24 -41 -26 4 -4 40
12 94 40 22 12 30 27 13 27 -6 0 -12 -4 -16 -9z"/>
<path d="M1793 2600 c0 -25 2 -35 4 -22 2 12 2 32 0 45 -2 12 -4 2 -4 -23z"/>
<path d="M4680 2610 c0 -5 -6 -10 -13 -10 -7 0 -40 -14 -74 -30 -34 -17 -76
-33 -93 -36 -31 -7 -52 -24 -28 -24 11 0 90 31 211 83 29 12 36 27 12 27 -8 0
-15 -4 -15 -10z"/>
<path d="M1490 2590 c46 -25 63 -25 25 0 -16 11 -37 20 -45 20 -8 -1 1 -9 20
-20z"/>
<path d="M4710 2580 c-9 -6 -10 -10 -3 -10 6 0 15 5 18 10 8 12 4 12 -15 0z"/>
<path d="M2792 2550 c0 -14 2 -19 5 -12 2 6 2 18 0 25 -3 6 -5 1 -5 -13z"/>
<path d="M1550 2549 c0 -5 5 -7 10 -4 6 3 10 8 10 11 0 2 -4 4 -10 4 -5 0 -10
-5 -10 -11z"/>
<path d="M1930 2545 c-1 -11 -1 -24 0 -30 1 -5 4 -23 7 -40 2 -16 8 -43 13
-59 6 -16 10 -44 10 -62 0 -19 5 -34 11 -34 6 0 9 -6 6 -12 -2 -7 1 -40 8 -73
11 -48 13 -53 14 -25 0 19 -4 53 -9 75 -5 22 -20 94 -34 160 -13 66 -25 111
-26 100z"/>
<path d="M1586 2541 c-3 -5 1 -12 10 -15 22 -8 25 -4 9 11 -8 7 -16 9 -19 4z"/>
<path d="M1797 2455 c3 -55 10 -109 14 -120 9 -22 1 103 -11 175 -5 27 -6 4
-3 -55z"/>
<path d="M4097 2516 c-10 -8 -14 -16 -10 -19 5 -3 20 3 33 14 17 12 20 19 10
18 -8 0 -23 -6 -33 -13z"/>
<path d="M1340 2509 c0 -14 18 -19 24 -7 3 7 3 2 0 -11 -4 -17 -2 -22 7 -19
24 8 17 43 -8 44 -13 1 -23 -2 -23 -7z"/>
<path d="M2690 2491 c0 -6 4 -13 10 -16 6 -3 7 1 4 9 -7 18 -14 21 -14 7z"/>
<path d="M4385 2480 c-16 -7 -17 -9 -3 -9 9 -1 20 4 23 9 7 11 7 11 -20 0z"/>
<path d="M2777 2445 c-10 -23 -9 -25 7 -19 9 3 18 -5 24 -23 8 -21 11 -23 11
-8 0 11 -8 31 -18 44 -16 21 -19 21 -24 6z"/>
<path d="M1548 2436 c3 -5 -2 -7 -11 -3 -10 4 -16 2 -14 -6 1 -7 -5 -10 -13
-9 -8 2 -12 1 -8 -3 4 -4 3 -18 -2 -31 -6 -15 -6 -34 1 -51 8 -22 7 -30 -6
-40 -14 -10 -22 -8 -43 13 -15 13 -32 24 -38 24 -18 0 -55 41 -47 53 5 9 2 8
-9 0 -8 -7 -18 -10 -21 -6 -4 3 -7 1 -7 -7 0 -10 -4 -10 -17 1 -15 12 -16 12
-10 -4 4 -11 3 -16 -3 -12 -14 9 -52 -4 -45 -15 3 -5 -4 -14 -15 -20 -11 -6
-20 -16 -20 -23 0 -7 4 -6 10 3 5 8 10 10 10 4 0 -5 -4 -14 -10 -20 -5 -5 -11
-23 -13 -40 -2 -17 -14 -47 -26 -68 -22 -36 -23 -37 -5 -64 10 -15 19 -31 19
-37 0 -5 6 -11 13 -11 25 -3 27 -5 12 -15 -12 -9 -13 -10 0 -7 17 5 50 -21 50
-39 0 -7 -5 -13 -11 -13 -7 0 -6 -9 4 -23 15 -24 8 -55 -10 -44 -6 4 -19 0
-29 -8 -16 -12 -11 -12 41 -1 34 7 75 9 95 5 20 -4 40 -3 47 3 7 5 17 7 23 3
6 -4 17 0 23 8 19 25 137 51 122 27 -3 -5 -1 -10 4 -10 6 0 11 3 11 8 0 13 53
32 89 33 30 0 33 2 15 9 -12 5 -38 5 -60 -1 -22 -4 -57 -9 -79 -9 -23 0 -57
-8 -77 -18 -20 -11 -56 -24 -80 -31 -38 -11 -48 -10 -85 7 -33 14 -40 21 -31
30 7 7 17 12 23 12 6 0 -17 30 -52 66 -35 36 -63 70 -63 75 0 25 33 69 55 75
28 7 31 16 11 33 -34 29 9 101 61 101 28 0 105 -42 143 -78 14 -13 48 -37 75
-53 69 -40 73 -44 138 -126 32 -40 63 -73 70 -73 7 0 23 -6 37 -13 30 -16 179
-21 200 -7 10 7 -16 10 -87 10 l-102 0 -23 33 c-34 48 -45 61 -141 169 -48 55
-95 111 -103 124 -34 51 13 102 76 84 29 -8 150 -98 150 -111 0 -4 18 -19 39
-33 22 -15 52 -46 68 -69 33 -49 31 -46 85 -115 23 -28 51 -58 63 -66 23 -15
218 -26 231 -13 6 6 -152 13 -179 8 -18 -3 -68 43 -111 102 -66 89 -67 90
-108 136 -21 22 -43 41 -49 41 -5 0 -7 5 -4 10 3 6 2 10 -4 10 -5 0 -23 12
-38 27 -15 14 -22 23 -14 18 10 -5 12 -4 7 3 -4 7 -14 12 -23 12 -13 0 -13 2
-2 17 13 15 12 15 -8 4 -22 -11 -28 -8 -24 13 1 5 -5 6 -13 3 -10 -4 -13 -1
-10 7 6 17 -13 25 -49 21 -15 -2 -27 0 -27 3 0 4 -11 7 -24 7 -13 0 -22 -4
-18 -9z m16 -181 c9 -14 14 -25 10 -25 -4 0 0 -7 7 -17 13 -15 12 -15 -6 -5
-23 12 -67 47 -46 36 10 -5 12 -3 7 5 -5 7 -15 10 -23 7 -8 -3 -11 -1 -8 4 3
6 1 10 -6 10 -9 0 -8 4 1 15 15 18 40 7 64 -30z m-330 -45 c-6 -6 -10 -2 -11
12 -2 16 1 18 10 9 7 -7 8 -14 1 -21z m384 -25 c-3 -3 -9 2 -12 12 -6 14 -5
15 5 6 7 -7 10 -15 7 -18z m117 -125 c10 -11 16 -20 13 -20 -3 0 -13 9 -23 20
-10 11 -16 20 -13 20 3 0 13 -9 23 -20z"/>
<path d="M2704 2428 c-4 -13 -7 -29 -6 -35 2 -7 -3 -13 -9 -13 -8 0 -6 -7 4
-18 10 -10 17 -24 17 -30 0 -7 4 -12 8 -12 18 0 21 13 8 32 -9 13 -11 30 -6
54 9 39 -4 56 -16 22z"/>
<path d="M3595 2421 c-3 -5 0 -13 6 -17 7 -4 9 -3 5 4 -3 5 0 13 6 15 9 4 10
6 1 6 -6 1 -14 -3 -18 -8z"/>
<path d="M1415 2410 c3 -5 14 -10 23 -10 15 0 15 2 2 10 -20 13 -33 13 -25 0z"/>
<path d="M1470 2384 c0 -8 5 -12 10 -9 6 3 10 10 10 16 0 5 -4 9 -10 9 -5 0
-10 -7 -10 -16z"/>
<path d="M2776 2384 c-8 -21 -8 -34 2 -34 4 0 8 11 8 25 2 29 -1 32 -10 9z"/>
<path d="M1151 2361 c-7 -5 -12 -14 -10 -20 2 -6 10 -2 17 9 14 22 13 23 -7
11z"/>
<path d="M1594 2359 c-4 -7 -3 -10 3 -6 13 8 36 -17 25 -28 -4 -4 3 -2 16 4
12 6 22 14 22 17 0 3 -5 2 -11 -1 -5 -4 -19 1 -29 10 -14 12 -20 13 -26 4z"/>
<path d="M4027 2354 c-3 -3 -4 -11 -1 -18 2 -6 -5 -18 -17 -26 -38 -26 -80
-73 -115 -127 -36 -55 -39 -63 -25 -63 5 0 14 15 21 33 7 17 43 61 80 97 37
36 70 75 73 88 5 21 -3 29 -16 16z"/>
<path d="M4891 2344 c0 -11 3 -14 6 -6 3 7 2 16 -1 19 -3 4 -6 -2 -5 -13z"/>
<path d="M1565 2340 c-3 -5 -1 -10 4 -10 6 0 11 5 11 10 0 6 -2 10 -4 10 -3 0
-8 -4 -11 -10z"/>
<path d="M1673 2343 c4 -6 -5 -15 -18 -21 -14 -7 -25 -17 -25 -23 0 -8 5 -7
16 2 13 10 17 10 26 -2 8 -12 9 -11 5 2 -3 9 -1 21 5 27 6 6 6 12 -3 17 -7 5
-10 4 -6 -2z"/>
<path d="M2790 2335 c-7 -8 -16 -12 -21 -9 -5 3 -9 0 -9 -5 0 -6 4 -11 8 -11
14 0 47 28 41 34 -3 4 -12 0 -19 -9z"/>
<path d="M2750 2269 c0 -13 5 -31 10 -39 7 -11 8 -5 4 20 -8 43 -14 51 -14 19z"/>
<path d="M1396 2273 c-15 -4 -16 -7 -5 -14 11 -6 11 -11 1 -21 -6 -6 -12 -19
-11 -27 0 -10 4 -7 10 7 5 14 13 20 20 16 7 -4 9 -3 5 4 -3 5 0 13 6 15 10 4
10 6 0 6 -7 1 -10 6 -7 11 3 6 5 9 3 9 -2 -1 -12 -4 -22 -6z"/>
<path d="M1320 2255 c-7 -9 -11 -18 -8 -20 3 -3 11 1 18 10 7 9 11 18 8 20 -3
3 -11 -1 -18 -10z"/>
<path d="M3683 2263 c9 -2 23 -2 30 0 6 3 -1 5 -18 5 -16 0 -22 -2 -12 -5z"/>
<path d="M1053 2242 c1 -12 6 -18 15 -15 7 3 10 9 5 12 -4 3 -11 10 -15 15 -4
4 -6 -1 -5 -12z"/>
<path d="M1177 2246 c-3 -8 0 -17 8 -20 9 -3 13 2 12 15 -2 22 -13 25 -20 5z"/>
<path d="M3573 2253 c15 -2 39 -2 55 0 15 2 2 4 -28 4 -30 0 -43 -2 -27 -4z"/>
<path d="M3503 2243 c9 -2 23 -2 30 0 6 3 -1 5 -18 5 -16 0 -22 -2 -12 -5z"/>
<path d="M1346 2226 c5 -13 4 -17 -4 -12 -6 3 -14 2 -17 -4 -5 -8 -12 -7 -23
2 -9 7 -6 -2 7 -20 13 -19 30 -36 38 -39 8 -3 12 -12 9 -20 -4 -8 -1 -11 5 -8
6 4 41 -23 79 -59 37 -36 74 -66 81 -66 11 0 -85 94 -169 165 -17 15 -29 31
-26 37 4 6 10 5 15 -3 6 -11 9 -10 15 4 4 10 1 24 -5 30 -9 9 -11 8 -5 -7z"/>
<path d="M3448 2233 c7 -3 16 -2 19 1 4 3 -2 6 -13 5 -11 0 -14 -3 -6 -6z"/>
<path d="M1770 2214 c-22 -12 -23 -14 -5 -14 17 0 18 -2 5 -11 -10 -7 -11 -9
-2 -7 8 2 13 7 12 12 -1 4 7 14 17 22 23 17 6 16 -27 -2z"/>
<path d="M3293 2213 c9 -2 23 -2 30 0 6 3 -1 5 -18 5 -16 0 -22 -2 -12 -5z"/>
<path d="M1815 2190 c-3 -6 1 -7 9 -4 18 7 21 14 7 14 -6 0 -13 -4 -16 -10z"/>
<path d="M1247 2170 c-10 -13 -10 -13 4 -2 14 10 18 10 22 -2 8 -21 44 -39 44
-21 0 7 -6 11 -13 8 -17 -6 -29 18 -13 28 10 6 7 8 -9 6 -13 -1 -29 -8 -35
-17z"/>
<path d="M1785 2160 c-8 -13 5 -13 25 0 13 8 13 10 -2 10 -9 0 -20 -4 -23 -10z"/>
<path d="M1980 2151 c0 -5 5 -13 10 -16 6 -3 10 -2 10 4 0 5 -4 13 -10 16 -5
3 -10 2 -10 -4z"/>
<path d="M1544 2139 c-4 -8 -3 -9 5 -5 6 4 14 0 17 -8 8 -20 21 -21 21 -1 0 8
-3 13 -5 10 -3 -3 -11 0 -18 6 -8 7 -14 6 -20 -2z"/>
<path d="M1604 2143 c10 -19 -12 -53 -29 -47 -12 5 -14 0 -11 -17 3 -13 5 -26
5 -29 1 -3 7 6 14 20 8 14 18 24 23 23 12 -2 12 42 0 54 -5 4 -6 3 -2 -4z"/>
<path d="M1275 2120 c3 -5 8 -10 11 -10 2 0 4 5 4 10 0 6 -5 10 -11 10 -5 0
-7 -4 -4 -10z"/>
<path d="M1540 2105 c-7 -9 -10 -18 -7 -21 3 -3 10 4 17 15 13 25 8 27 -10 6z"/>
<path d="M1075 2100 c-3 -5 -1 -10 4 -10 6 0 11 5 11 10 0 6 -2 10 -4 10 -3 0
-8 -4 -11 -10z"/>
<path d="M1107 2097 c-3 -8 1 -14 8 -14 7 0 11 6 8 14 -3 7 -6 13 -8 13 -2 0
-5 -6 -8 -13z"/>
<path d="M1343 2103 c9 -2 14 -9 11 -15 -4 -7 -2 -8 5 -4 15 10 4 26 -17 25
-15 -1 -15 -2 1 -6z"/>
<path d="M1501 2084 c0 -12 6 -24 14 -28 8 -3 15 -1 15 4 0 6 -4 10 -9 10 -5
0 -12 8 -14 18 -4 13 -5 12 -6 -4z"/>
<path d="M1316 2075 c4 -8 11 -15 16 -15 6 0 5 6 -2 15 -7 8 -14 15 -16 15 -2
0 -1 -7 2 -15z"/>
<path d="M1862 2078 c-14 -14 -16 -28 -2 -28 5 0 14 9 20 20 12 22 1 27 -18 8z"/>
<path d="M3837 2060 c-6 -16 -15 -30 -19 -30 -4 0 -8 -7 -8 -16 0 -24 24 4 38
44 14 40 4 43 -11 2z"/>
<path d="M2731 2054 c0 -11 3 -14 6 -6 3 7 2 16 -1 19 -3 4 -6 -2 -5 -13z"/>
<path d="M1095 2010 c-3 -6 1 -7 9 -4 18 7 21 14 7 14 -6 0 -13 -4 -16 -10z"/>
<path d="M1241 2006 c-6 -7 -24 -16 -39 -19 -15 -3 -36 -9 -46 -13 -14 -5 -17
-4 -11 5 6 10 3 11 -12 2 -15 -7 -25 -6 -41 5 -11 8 -23 10 -26 5 -13 -21 86
-35 129 -19 34 13 83 48 68 48 -6 0 -16 -6 -22 -14z"/>
<path d="M2375 2010 c-19 -8 -19 -9 3 -9 12 -1 22 4 22 9 0 6 -1 10 -2 9 -2 0
-12 -4 -23 -9z"/>
<path d="M2440 2010 c0 -5 5 -10 10 -10 6 0 10 5 10 10 0 6 -4 10 -10 10 -5 0
-10 -4 -10 -10z"/>
<path d="M1350 1977 c0 -8 7 -17 15 -21 8 -3 15 -3 15 0 0 3 -7 12 -15 20 -13
13 -15 13 -15 1z"/>
<path d="M1550 1949 c0 -5 5 -7 10 -4 6 3 10 8 10 11 0 2 -4 4 -10 4 -5 0 -10
-5 -10 -11z"/>
<path d="M1193 1935 c0 -8 4 -12 9 -9 5 3 6 10 3 15 -9 13 -12 11 -12 -6z"/>
<path d="M2838 1943 c7 -3 16 -2 19 1 4 3 -2 6 -13 5 -11 0 -14 -3 -6 -6z"/>
<path d="M1188 1903 c7 -3 16 -2 19 1 4 3 -2 6 -13 5 -11 0 -14 -3 -6 -6z"/>
<path d="M1100 1888 c0 -10 29 -9 55 2 16 7 12 9 -17 8 -21 -1 -38 -6 -38 -10z"/>
<path d="M3733 1825 c1 -36 5 -65 8 -65 11 0 17 75 6 81 -5 4 -3 9 4 13 11 5
11 7 1 12 -6 3 -10 10 -6 15 3 5 1 9 -5 9 -6 0 -9 -27 -8 -65z"/>
<path d="M3820 1859 c0 -5 5 -7 10 -4 6 3 10 8 10 11 0 2 -4 4 -10 4 -5 0 -10
-5 -10 -11z"/>
<path d="M3873 1863 c9 -2 23 -2 30 0 6 3 -1 5 -18 5 -16 0 -22 -2 -12 -5z"/>
<path d="M3610 1851 c0 -18 15 -19 40 -5 l25 13 -32 1 c-18 0 -33 -4 -33 -9z"/>
<path d="M3495 1840 c-3 -5 1 -10 9 -10 9 0 16 5 16 10 0 6 -4 10 -9 10 -6 0
-13 -4 -16 -10z"/>
<path d="M979 1819 c-19 -16 -20 -18 -4 -10 34 17 51 31 39 31 -7 0 -22 -9
-35 -21z"/>
<path d="M3703 1826 c-10 -11 -9 -15 2 -20 10 -4 15 1 15 14 0 23 -1 24 -17 6z"/>
<path d="M2501 1794 c0 -11 3 -14 6 -6 3 7 2 16 -1 19 -3 4 -6 -2 -5 -13z"/>
<path d="M2960 1795 c-7 -9 -11 -18 -8 -20 3 -3 11 1 18 10 7 9 11 18 8 20 -3
3 -11 -1 -18 -10z"/>
<path d="M3850 1765 c0 -8 4 -15 10 -15 5 0 7 7 4 15 -4 8 -8 15 -10 15 -2 0
-4 -7 -4 -15z"/>
<path d="M944 1758 c-4 -5 -3 -12 0 -15 3 -4 6 -1 6 6 0 7 4 10 9 6 5 -3 12
-2 15 3 3 5 -2 9 -10 9 -8 0 -17 -4 -20 -9z"/>
<path d="M3591 1754 c0 -11 3 -14 6 -6 3 7 2 16 -1 19 -3 4 -6 -2 -5 -13z"/>
<path d="M2920 1734 c0 -8 5 -12 10 -9 6 3 10 10 10 16 0 5 -4 9 -10 9 -5 0
-10 -7 -10 -16z"/>
<path d="M3658 1718 c-47 -21 -71 -48 -43 -48 8 0 15 5 15 11 0 5 4 8 9 5 10
-7 80 34 81 47 0 11 -10 8 -62 -15z"/>
<path d="M3731 1713 c-13 -13 -20 -23 -15 -23 15 1 46 28 43 37 -2 4 -15 -2
-28 -14z"/>
<path d="M3837 1725 c-4 -8 -13 -15 -22 -15 -8 0 -15 -4 -15 -9 0 -5 -12 -12
-27 -16 -16 -4 -23 -9 -16 -12 23 -8 105 48 91 63 -3 3 -8 -2 -11 -11z"/>
<path d="M2494 1676 c-3 -8 -4 -23 -2 -33 3 -11 6 -6 9 15 6 34 2 42 -7 18z"/>
<path d="M2895 1680 c3 -5 8 -10 11 -10 2 0 4 5 4 10 0 6 -5 10 -11 10 -5 0
-7 -4 -4 -10z"/>
<path d="M3693 1661 c-10 -15 -9 -20 1 -24 9 -4 16 3 19 19 5 29 -4 31 -20 5z"/>
<path d="M2418 1664 c-5 -4 -8 -16 -8 -28 0 -14 3 -17 11 -9 6 6 9 19 7 28 -1
9 -6 13 -10 9z"/>
<path d="M2451 1654 c0 -11 3 -14 6 -6 3 7 2 16 -1 19 -3 4 -6 -2 -5 -13z"/>
<path d="M3650 1660 c0 -5 5 -10 10 -10 6 0 10 5 10 10 0 6 -4 10 -10 10 -5 0
-10 -4 -10 -10z"/>
<path d="M3885 1660 c-3 -5 -1 -10 4 -10 6 0 11 5 11 10 0 6 -2 10 -4 10 -3 0
-8 -4 -11 -10z"/>
<path d="M2685 1650 c3 -5 8 -10 11 -10 2 0 4 5 4 10 0 6 -5 10 -11 10 -5 0
-7 -4 -4 -10z"/>
<path d="M3777 1639 c-9 -5 -22 -7 -27 -4 -6 3 -15 3 -21 -1 -19 -11 50 -34
100 -33 25 1 37 4 26 6 -11 3 -26 10 -33 16 -10 8 -16 7 -22 -2 -5 -9 -10 -10
-14 -3 -4 6 2 15 11 21 10 6 14 10 8 10 -5 0 -18 -4 -28 -10z"/>
<path d="M3520 1615 c0 -8 2 -15 4 -15 2 0 6 7 10 15 3 8 1 15 -4 15 -6 0 -10
-7 -10 -15z"/>
<path d="M4190 1620 c0 -5 5 -10 11 -10 5 0 7 5 4 10 -3 6 -8 10 -11 10 -2 0
-4 -4 -4 -10z"/>
<path d="M2396 1583 c-6 -14 -5 -15 5 -6 7 7 10 15 7 18 -3 3 -9 -2 -12 -12z"/>
<path d="M2824 1585 c11 -8 27 -15 35 -15 13 1 12 4 -3 15 -11 8 -27 15 -35
15 -13 -1 -12 -4 3 -15z"/>
<path d="M2755 1561 c-22 -10 -45 -16 -52 -14 -6 2 -14 -1 -18 -6 -9 -15 31
-14 75 2 33 11 47 23 38 32 -2 2 -21 -4 -43 -14z"/>
<path d="M2366 1505 c-3 -9 -6 -29 -5 -43 1 -22 3 -19 10 12 10 40 6 60 -5 31z"/>
<path d="M3025 1493 c-11 -2 -30 -9 -42 -15 -20 -10 -21 -11 -4 -29 9 -10 33
-21 52 -24 l34 -5 -32 10 c-58 19 -37 50 33 50 19 0 34 5 34 10 0 10 -37 12
-75 3z"/>
<path d="M2855 1481 c-6 -5 -37 -18 -70 -31 -139 -50 -215 -89 -215 -108 0
-13 3 -13 18 1 10 10 23 17 28 17 5 0 26 9 47 20 21 11 43 17 49 14 6 -4 8 -3
5 3 -4 7 8 14 31 18 20 4 51 15 68 26 17 10 47 19 65 19 19 0 41 5 49 11 12 8
7 9 -17 6 -18 -2 -33 0 -33 5 0 11 -14 10 -25 -1z"/>
<path d="M3130 1480 c-8 -5 -10 -10 -5 -10 6 0 17 5 25 10 8 5 11 10 5 10 -5
0 -17 -5 -25 -10z"/>
<path d="M3190 1479 c0 -5 5 -7 10 -4 6 3 10 8 10 11 0 2 -4 4 -10 4 -5 0 -10
-5 -10 -11z"/>
<path d="M3276 1468 c3 -4 10 -6 15 -3 5 4 9 3 9 -2 0 -4 -14 -16 -31 -26 -18
-10 -29 -20 -26 -24 3 -3 13 2 21 10 9 8 29 18 45 22 52 11 55 30 6 31 -25 0
-42 -3 -39 -8z"/>
<path d="M3070 1420 c0 -6 7 -10 15 -10 8 0 15 2 15 4 0 2 -7 6 -15 10 -8 3
-15 1 -15 -4z"/>
<path d="M2802 1390 c0 -19 2 -27 5 -17 2 9 2 25 0 35 -3 9 -5 1 -5 -18z"/>
<path d="M2530 1340 c0 -5 7 -10 15 -10 8 0 15 5 15 10 0 6 -7 10 -15 10 -8 0
-15 -4 -15 -10z"/>
<path d="M2334 1329 c-18 -24 -24 -48 -12 -55 6 -4 8 -3 4 4 -3 6 1 18 10 26
8 9 14 21 12 27 -2 7 -7 7 -14 -2z"/>
<path d="M2793 1265 c0 -44 2 -61 4 -37 2 23 2 59 0 80 -2 20 -4 1 -4 -43z"/>
<path d="M3410 1230 c0 -5 5 -10 11 -10 5 0 7 5 4 10 -3 6 -8 10 -11 10 -2 0
-4 -4 -4 -10z"/>
<path d="M3520 1130 c13 -11 27 -20 33 -20 5 0 -2 9 -16 20 -14 11 -29 20 -33
20 -4 0 3 -9 16 -20z"/>
<path d="M4686 1132 c-3 -5 1 -9 9 -9 8 0 12 4 9 9 -3 4 -7 8 -9 8 -2 0 -6 -4
-9 -8z"/>
<path d="M3560 1096 c0 -2 7 -6 15 -10 8 -3 15 -1 15 4 0 6 -7 10 -15 10 -8 0
-15 -2 -15 -4z"/>
<path d="M2305 1057 c-61 -32 -119 -77 -99 -77 6 0 26 10 45 23 19 12 48 29
64 37 33 16 74 51 59 49 -5 -1 -36 -15 -69 -32z"/>
<path d="M2389 1071 c-8 -21 3 -171 12 -171 5 0 7 38 5 85 -3 80 -9 110 -17
86z"/>
<path d="M884 980 c0 -13 4 -16 10 -10 7 7 7 13 0 20 -6 6 -10 3 -10 -10z"/>
<path d="M965 970 c10 -11 20 -20 23 -20 3 0 -3 9 -13 20 -10 11 -20 20 -23
20 -3 0 3 -9 13 -20z"/>
<path d="M2280 976 c0 -2 9 -6 20 -9 11 -3 20 -1 20 4 0 5 -9 9 -20 9 -11 0
-20 -2 -20 -4z"/>
<path d="M2210 962 c0 -5 15 -16 33 -26 17 -9 24 -14 14 -11 -10 3 -15 1 -12
-5 3 -6 17 -7 31 -4 25 6 34 -10 12 -20 -7 -3 1 -3 18 -1 22 3 37 -1 53 -17
18 -16 25 -18 31 -8 5 9 -17 26 -76 56 -84 44 -104 51 -104 36z"/>
<path d="M2335 950 c3 -5 8 -10 11 -10 2 0 4 5 4 10 0 6 -5 10 -11 10 -5 0 -7
-4 -4 -10z"/>
<path d="M1168 943 c6 -2 18 -2 25 0 6 3 1 5 -13 5 -14 0 -19 -2 -12 -5z"/>
<path d="M2381 829 c0 -13 4 -33 9 -44 7 -14 8 -8 3 20 -7 46 -13 59 -12 24z"/>
<path d="M4536 467 c3 -10 9 -15 12 -12 3 3 0 11 -7 18 -10 9 -11 8 -5 -6z"/>
<path d="M2535 329 c5 -22 4 -29 -4 -25 -6 4 -11 4 -11 -1 1 -15 27 -43 41
-43 10 0 10 3 1 12 -7 7 -12 29 -12 50 0 21 -5 38 -11 38 -7 0 -8 -11 -4 -31z"/>
<path d="M2598 353 c7 -3 16 -2 19 1 4 3 -2 6 -13 5 -11 0 -14 -3 -6 -6z"/>
<path d="M2561 325 c0 -35 29 -74 60 -80 25 -5 20 3 -13 19 -13 7 -27 28 -34
51 -12 38 -12 38 -13 10z"/>
<path d="M2711 331 c-6 -11 -20 -23 -32 -26 -11 -4 -18 -9 -16 -11 8 -9 57 19
57 33 0 7 5 13 11 13 7 0 8 -12 4 -32 -6 -25 -4 -30 5 -22 14 14 10 56 -7 61
-6 2 -16 -5 -22 -16z"/>
<path d="M2620 333 c0 -7 -1 -16 -2 -20 -5 -10 28 -12 43 -1 11 8 10 9 -3 4
-10 -3 -22 2 -27 12 -6 10 -11 12 -11 5z"/>
<path d="M2600 291 c0 -5 5 -13 10 -16 6 -3 10 -2 10 4 0 5 -4 13 -10 16 -5 3
-10 2 -10 -4z"/>
<path d="M4491 204 c0 -11 3 -14 6 -6 3 7 2 16 -1 19 -3 4 -6 -2 -5 -13z"/>
</g>
</svg>
